<svg id="Layer_1" data-name="Layer 1" xmlns="http://www.w3.org/2000/svg" viewBox="0 0 1312.4 600.78"><defs><style>.cls-1{fill:#cedfff;}.cls-2{fill:#ebf1f5;}.cls-3{fill:#e7eff5;}.cls-4{fill:#b5cbdd;}.cls-5{fill:#b4cbdc;}.cls-6{fill:#f2f6f9;}.cls-7{fill:#f1f6f9;}.cls-8{fill:#f1f5f9;}.cls-9{fill:#ecf2f7;}.cls-10{fill:#eef4f8;}.cls-11{fill:#edf3f8;}.cls-12{fill:#eaf1f6;}.cls-13{fill:#b3c9d8;}.cls-14{fill:#8aa4b8;}.cls-15{fill:#c6d4dd;}.cls-16{fill:#fff;}.cls-17{fill:#b8ccdb;}.cls-18{fill:#b1c7d7;}.cls-19{fill:#b0c8d7;}.cls-20{fill:#bfd0dd;}.cls-21{fill:#b2c9d8;}.cls-22{fill:#b1c8d7;}.cls-23{fill:#aec5d5;}.cls-24{fill:#c2d3df;}.cls-25{fill:#b8cddb;}.cls-26{fill:#acc5d5;}.cls-27{fill:#b0c7d7;}.cls-28{fill:#aec6d6;}.cls-29{fill:#a0bbcd;}.cls-30{fill:#afc5d5;}.cls-31{fill:#b0c7d6;}.cls-32{fill:#b1c8d8;}.cls-33{fill:#abc4d4;}.cls-34{fill:#acc3d4;}.cls-35{fill:#aec6d5;}.cls-36{fill:#acc4d5;}.cls-37{fill:#adc5d5;}.cls-38{fill:#b3cadc;}.cls-39{fill:#eff4f7;}.cls-40{fill:#eaf2f5;}.cls-41{fill:#ecf1f5;}.cls-42{fill:#b2c9d7;}.cls-43{fill:#99b3c7;}.cls-44{fill:#cad8e1;}.cls-45{fill:#9ca5fa;}.cls-46{fill:#6b7ea2;}.cls-47{fill:#84a1b4;}.cls-48{fill:#e9f0f6;}.cls-49{fill:#e5e8e8;}.cls-50{fill:#e4e9e7;}.cls-51{fill:#c4d4df;}.cls-52{fill:#b8ccda;}.cls-53{fill:#b4c9d7;}.cls-54{fill:#b6d4fe;}.cls-55{fill:#6e809e;}.cls-56{fill:#71839f;}.cls-57{fill:#e8eef3;}.cls-58{fill:#394e8f;}.cls-59{fill:#6c7e9d;}.cls-60{fill:#e8e6f3;}.cls-61{fill:#7082a0;}.cls-62{fill:#fcfcfd;}.cls-63{fill:#d1d8e2;}.cls-64,.cls-88{fill:#e6e4f2;}.cls-65{fill:#96a4ba;}.cls-66{fill:#a8b9cb;}.cls-67{fill:#e8e8f3;}.cls-68{fill:#e6e6e6;}.cls-69{fill:#eae9f4;}.cls-70{fill:#a4aec1;}.cls-71{fill:#b0bed0;}.cls-72{fill:#eae8f4;}.cls-73{fill:#dde0e2;}.cls-74{fill:#f7f8fa;}.cls-75{fill:#e3e6e8;}.cls-76{fill:#f5f6f8;}.cls-77{fill:#66799a;}.cls-78{fill:#d0d2dd;}.cls-79{fill:#a5b0c3;}.cls-80{fill:#ededf2;}.cls-81{fill:#7485a2;}.cls-82{fill:#e6e7e7;}.cls-83{fill:#e7e7e7;}.cls-84{fill:#6d7f9e;}.cls-85{fill:#fefefe;}.cls-86{fill:#a6b1c4;}.cls-87{fill:#f7f6fa;}.cls-88{font-size:6.66px;font-family:MyriadPro-Regular, Myriad Pro;}.cls-89{letter-spacing:0em;}.cls-90{letter-spacing:-0.01em;}.cls-91,.cls-92{fill:none;}.cls-91{stroke:#fff;stroke-miterlimit:10;}.cls-93{fill:#c4d9e8;}.cls-94{fill:#5793ce;}.cls-95{fill:#d4ecff;}.cls-96{fill:#173d7a;}.cls-97{fill:#1e3865;}.cls-98{fill:#ffae73;}.cls-99{fill:#fc7600;}.cls-100{fill:#ff912b;}.cls-101{fill:#f9924f;}.cls-102{fill:#899bfa;}.cls-103{fill:#667ee8;}.cls-104{fill:#e8f2fa;}.cls-105{fill:#074a92;}.cls-106{fill:#ffa051;}.cls-107{fill:#ff8a3a;}.cls-108{fill:#ffa05e;}.cls-109{fill:#0b3563;}.cls-110{fill:#0b4d87;}.cls-111{fill:#6b98f6;}.cls-112{opacity:0.5;}.cls-113{fill:#accefc;}</style></defs><path class="cls-1" d="M653.41,440.23S640,310,541.21,283.06c0,0-19.25-4.94-28.57,15.76s29.58,25.91,52.51,37.69S639.38,392.32,653.41,440.23Z" transform="translate(-15.5 -98.22)"/><path class="cls-1" d="M658.76,416.88s24-103.31-44.54-150c0,0-13.45-8.86-26,4.54s15.83,27.65,30.29,42.72S660.64,376.47,658.76,416.88Z" transform="translate(-15.5 -98.22)"/><path class="cls-1" d="M558.42,461.1s56.56-22.69,37.15-66c0,0-16.49-27.16-36.76-36.23,0,0,3.49,61.22-7.94,61.17s1-68.5,1-68.5-52.08-33.92-74.15-34.64c0,0,26.89,62.83,15.82,60S451.48,310,451.48,310,395.9,292,382.38,324.59s-.94,51.35,7.22,54.55,62.4,9.53,60.08,16.38-40.34,13.35-59.91,4.38c0,0,15.29,58.46,45.19,59.48s41.41-16.08,59.87-15.11,31.18,7.62,21.4,11.35S476,452,459.55,462.68s-29.35,16.82-2.65,26,76.36,12.05,88.94-7.77Z" transform="translate(-15.5 -98.22)"/><path class="cls-1" d="M407,338.51s141.45,67,151.39,122.59c0,0-3.8,23.81,7.4,53.15l-1.37,10.54s-10.81-37.86-18.61-43.88C545.84,480.91,584.9,438.8,407,338.51Z" transform="translate(-15.5 -98.22)"/><path class="cls-1" d="M565.82,514.25s18.29,37.53-.15,77.94L560,589.85s11.7-45.62,2.81-70.48S565.82,514.25,565.82,514.25Z" transform="translate(-15.5 -98.22)"/><path class="cls-2" d="M1195.5,567.58c-1-.11-1.44-1.32-2.68-1.07.91,2.72.51,5.64,1.55,8.35a6,6,0,0,1,.09,1.9,3.38,3.38,0,0,1-2.11,3.43,11.08,11.08,0,0,1-3.19.95c-4.41.72-7.18,3.2-8,7.68-.12.62-.37,1.22-.52,1.84-.31,1.23.09,1.8,1.4,1.87s2.56.05,3.83.05h44.63a18.69,18.69,0,0,1,3.82.12c2.62.54,3.58,2.32,3.4,6-.16,3.38-1.1,5-3.57,5.33a42.46,42.46,0,0,1-4.79.09H897.77c-2.24,0-4.48,0-6.71,0l-.94,0c-.06-.31-.13-.62-.19-.92a3.51,3.51,0,0,1,1.12-1.49c3.15-1.68,6.57-1.12,9.89-1.12q161.16,0,322.32,0a42.07,42.07,0,0,0,5.27-.05c1.85-.23,5,.8,4.82-2.28-.12-2.83-3.15-1.95-5-2.15s-3.84,0-5.76,0H899.74c-2.56,0-5.15.25-7.65-.29-1.56-.34-3.88-.38-2.81-3.19a2.66,2.66,0,0,0,.91.31c6.52-.61,13.07-.17,19.6-.32a12.34,12.34,0,0,0,2.35-.26.78.78,0,0,0,.58-1.1c-1.92-2.81-1.47-6.55-3.68-9.23a2.8,2.8,0,0,1-.53-1.32c-.77-5-3-9.73-3.64-14.75a43.36,43.36,0,0,0-2-9.78,3.53,3.53,0,0,1,.1-2.33,3,3,0,0,0-.33-3.13,1.86,1.86,0,0,1-.33-1.34c.73-3.33.15-6.7.39-10,.12-1.76.59-2.25,2.34-2.34,1.28-.08,2.56-.05,3.84-.05H989c1,0,1.92,0,2.88,0,2.25.09,3.56.87,3.65,2.93.16,3.35,1.56,6.53,1.2,9.94-.39,3.7,1.43,6.77,3.11,9.82.54,1,1.32,1.65,1,3-.26,1.13.61,2.11,1.14,3.07a50.39,50.39,0,0,0,7.55,10.42c2.37,2.52,4.89,4.86,8.49,5.75,1.27.31,2.28,1.65,3.4,2.53s2,1.71,3.42,1c.63-.32,1.2,0,1.79.31a39.62,39.62,0,0,0,18,4.09c1.76,0,3.52-.08,5.28,0a25.62,25.62,0,0,0,11.24-1.79c1.26-.5,2.61-1.29,4.14-.55a1.55,1.55,0,0,0,1.34-.15c2.11-1.7,5.24-1.34,7.11-3.66.59-.73,2-.76,3.06-1.11.3-2.39,3.22-2,4-3.72s2.52-2.38,3.72-3.63c.65-.67.26-2.21,1.42-2.29,1.54-.1,1.89-.43,1.31-2-.65-1.68.32-2.74,1.92-3.21,1.18-.35,1.48-1,1-2.15a3.18,3.18,0,0,1,.81-3.9,5.42,5.42,0,0,0,1.68-4.34,7.42,7.42,0,0,1,.55-3.28,4.13,4.13,0,0,0,.07-3.27c-.3-.77-.56-1.6,0-2.27,1.92-2.22,1.37-4.89,1.18-7.36-.24-3.15-1-6.26-1.48-9.39a20.94,20.94,0,0,1-.33-2.84,3.93,3.93,0,0,0-1.1-3.06c-2-1.7-2.07-3.9-1.63-6.16.23-1.17,0-1.76-1.12-2.17a1.65,1.65,0,0,1-.86-1.05c-.49-2.66-3.83-3.52-4-6.38-.07-1.57-.92-1.82-2.28-1.36-.66.23-1.15-.17-1.59-.73a21.26,21.26,0,0,0-11.83-7.59,11.46,11.46,0,0,1-2.15-1,41.92,41.92,0,0,0-12.29-3.69c-1.58-.25-3.12-.62-4.67-.89-2.13-.36-4.11-1-6.52-.52s-5.37-.24-8-.92a23.88,23.88,0,0,0-6.16-.62c-6.08,0-12.16,0-18.24,0-1.12,0-2.24,0-3.35-.08a2.49,2.49,0,0,1-2.52-2.41,31.35,31.35,0,0,1-.1-3.36q0-33.11,0-66.22c0-5.48.19-5.66,5.66-5.68,4.8,0,9.6,0,14.4,0,3,0,6.08.35,9-.8a4.18,4.18,0,0,1,1.9-.13c4.2.51,8.21-1.1,12.36-1,5-2,10.8-1.56,15.26-5.15,4.21-.88,7.4-3.47,10.52-6.21a5.84,5.84,0,0,1,2.15-1c1-.3,1-.89.92-1.78-.07-1.79,0-1.85,2.36-2.38a2,2,0,0,0,1.58-1.57,4.63,4.63,0,0,0,0-1.39c-.09-3,.13-3.2,3.08-2.3.56-1-.52-1.76-.41-2.73s.9-1.66,1.3-2.51a1.82,1.82,0,0,0,.14-1.36c-.85-1.71-.3-3.08.85-4.37a.7.7,0,0,0,.22-.41c-.4-4.53,2.69-8.86.61-13.54-.54-1.23-.28-2.83-.31-4.26,0-1.61,0-3.21-1.21-4.5a1.72,1.72,0,0,1-.55-1.28c.93-3.37-1.32-5.77-2.59-8.42a30.71,30.71,0,0,0-3.88-6.58c-2.11-2.52-4.16-5.16-7.58-6.37-2.2-.78-4.1-2.41-6.12-3.69a7.72,7.72,0,0,0-4.42-1.64,6,6,0,0,1-4.46-1.36,1.65,1.65,0,0,0-1.31-.42c-2.56,1.1-5-.43-7.54-.21-2.38.21-4.81-.16-7.19.09a44.84,44.84,0,0,0-19.76,6.59c-1.73,1.11-3,2.76-5.09,3.46-1.56.53-.84,2.88-2.18,3.49a5.8,5.8,0,0,0-2.78,2.24c-1,1.48.31,3.35-1,4.49a11.88,11.88,0,0,0-2.46,3.38c-2.26,4-3,8.41-4.11,12.69-.45,1.66-.18,3.5-.35,5.25a2.47,2.47,0,0,1-2.49,2.44c-1.11.11-2.24.08-3.35.08h-83c-1.12,0-2.24,0-3.36-.09a1.55,1.55,0,0,1-1.61-1.46c-.17-2.3-1.46-4.63.16-6.91.41-.57.08-1.24-.19-1.82-.51-1.06-.78-2.06.14-3.08.28-.31.54-1,.38-1.29-1.13-2.08.07-3.58,1-5.29a8.75,8.75,0,0,0,1.06-4.13c-.11-4.44,2-8.35,2.6-12.59a25.62,25.62,0,0,1,4-11c.74-4.7,3.6-8.49,5.51-12.68a40.24,40.24,0,0,1,5.13-8.61c1.22-1.52,3.49-2.5,3.31-5,2-.81,2-3.51,4-4.38.3-.13.44-.83.5-1.28a2.26,2.26,0,0,1,1.68-2.05,4,4,0,0,0,2.78-3.41c.52-2.45,2-4.77,5.07-4.83.83,0,1.06-.55,1.43-1,.86-1.15,1.7-2.29,2.55-3.44,3.13-.15,4.26-3,6.34-4.64a7.83,7.83,0,0,1,2.32-1.61,7.86,7.86,0,0,0,3.54-2.33c.34-.34.66-.8,1.07-.94,2.9-1,5.32-2.78,7.87-4.38,1.05-.66,2.34-1,3.18-2,1-1.19,2.4,0,3.58-.74,3.17-2,10.05-4.31,13.86-5.27s7.63-2.27,11.45-3.42c2.13-.64,4.21-1.5,6.52-1.28a4.31,4.31,0,0,0,1.89-.23,21.42,21.42,0,0,1,6.49-1.21c5.07-.39,10.12-.94,15.17-1.41a11.07,11.07,0,0,0,2.39-.1c4.06-1.36,8.24-.73,12.36-.85a11.56,11.56,0,0,1,4.74.48,2.6,2.6,0,0,0,1.84.22c1.94-1.07,3.76.22,5.57.11,4.52-.27,8.85,1,13.31,1.2,3.07.16,6.31,0,9.24,1.43a2.73,2.73,0,0,0,2.32,0c.6-.25,1.27-.53,1.83-.14,2.83,2,6.38,1.71,9.47,3,2.91,1.22,6.08,1.8,9.09,2.79,2.56.84,5.26,1.36,7.43,3.16a2.85,2.85,0,0,0,1.72.8c3.13-.22,5.29,1.8,7.63,3.29,1.09.69,1.88,1.69,3.38,1.18.32-.11.93.24,1.25.54,3.39,3.21,7.89,4.81,11.38,7.87.72.63,1.49,1.2,2.22,1.82,1.12,1,1.66,2.82,3.75,2.33.3-.07.9.43,1.1.81,1.48,2.74,4,4.53,6,6.78.74.83,1.4,1.73,2.11,2.58.4.48.82,1.32,1.25,1.34,2.91.09,3.59,2.36,4.34,4.4a11.27,11.27,0,0,0,1.82,3.32c.4.49.79,1.18,1.31,1.32,1.9.51,1.86,1.94,1.86,3.41,0,.62,0,1.73.46,1.66,3.75-.51,2.42,2.92,3.4,4.43a61.5,61.5,0,0,1,4.43,8.48,14,14,0,0,0,2.23,3.55,7.55,7.55,0,0,1,1.58,6.2c-.1.62-.51,1.26-.14,1.83,1.91,2.92,1.83,6.34,2.53,9.57a8.8,8.8,0,0,0,.83,2.23,5.52,5.52,0,0,1,.52,5,2.65,2.65,0,0,0-.12,1.4c1.15,7,.58,14,.3,21a3.16,3.16,0,0,0,.52,2.22,2.05,2.05,0,0,1-.13,3,3,3,0,0,0-1,2.08,49.64,49.64,0,0,1-2.49,13.55,3.5,3.5,0,0,0,.28,2.32,2.26,2.26,0,0,1-.36,2.26,5.85,5.85,0,0,0-1.36,4,2.53,2.53,0,0,1-.6,1.75c-3,2.3-3.37,6-5,9-.64,1.19-1.11,2.25-2.52,2.58-.46.11-.94.4-.75,1,.74,2.37-.78,3.56-2.41,4.66a1.54,1.54,0,0,0-.65,2,1.76,1.76,0,0,1-1.36,2.57c-1.71.35-3,.82-3.15,2.86,0,.7-.82.86-1.29,1.26-1.6,1.37-3.84,2.29-3.66,5a1.13,1.13,0,0,1-1.32,1.08c-1.39-.33-1.94.49-2.7,1.39-4.74,5.56-10.75,9.41-17.23,12.62-.28.14-.68.12-.89.31-2.92,2.66-6.67,3.63-10.2,5a10.16,10.16,0,0,0-1.69.9c-1,.63-1,1.78,0,2.25a63.29,63.29,0,0,0,6.07,2.73c5.72,2,10.87,5.3,16.52,7.46,2.95,2.92,7.2,4.21,9.65,7.74a1.46,1.46,0,0,0,1.58.76,1.82,1.82,0,0,1,2,.93c1.31,2.46,3.54,4.09,5.36,6.09a6.46,6.46,0,0,1,1.48,1.86c.42,1.15.79,1.94,2.28,1.7.86-.14,1.27.8,1.82,1.36,1.49,1.49,2.78,1.36,3.73-.47a15.63,15.63,0,0,0,2.1-7.29c0-3,0-6.07,0-9.11-.08-5.24,2.39-9.11,6.47-12.06a95.3,95.3,0,0,1,12.62-7.79,17.63,17.63,0,0,0,8.58-8.62c.81-1.86,1.4-3.93,3.16-5.25,1.39,5.24-1.94,8.64-5,12-3.8,4.21-9.27,6.07-14,9-6.94,4.27-10.33,9.91-9.7,18.15.37,4.91.31,9.94-3.58,13.85-.68.62-1.57,1.18-.71,2.3a28.16,28.16,0,0,1,1.89,2.35c1.32,2.89,3.81,5.11,4.73,8.23a18.75,18.75,0,0,0,1.27,2.27,33.89,33.89,0,0,1,2.26,5c4.15,8.89,6.08,18.34,7.14,28a9.6,9.6,0,0,1,.34,1.48,123.49,123.49,0,0,1-.87,40c-.24,1.34-1.32,3.6,1.31,3.71,2.17.1,4.1-.94,4-3.68a53.68,53.68,0,0,0-1.2-7.55c-.3-1.79-1.2-4.52,1.39-4.74S1196.41,564.17,1195.5,567.58Z" transform="translate(-15.5 -98.22)"/><path class="cls-3" d="M212.48,407.31c3.41-2.29,4.77-6.2,7.24-9.24,2.28-2.8,4.38-3.55,7.77-2.08,17.72,7.65,36.16,13.47,53.92,21,1.77.75,3.66,1.15,5.46,1.76,3,1,6.19,1.85,7.71,5.13.37,1.87-.52,3.41-1.43,4.89-5.16,8.47-10.32,16.94-16.29,24.89-2.94,3.92-12.52,19.09-14.36,22.61-2.28,4.38-5.61,8.16-8.49,12.19-.8,1.12-2.22,2.31-1.46,3.8s2.57,1,3.93,1q31,.06,61.9,0c5.59,0,11.19.05,16.79,0,4.92-.07,5.41-.57,5.47-5.6.07-5.92-.11-11.84.07-17.75.1-3.21-1.2-4.77-4.27-5.06-.64-.34-1.76-1.05-1.05-1.53,1.86-1.26,1.92-2.72,1.3-4.54,3-1.3,4-3.63,4-6.86q-.11-32.55,0-65.09c0-1.93,0-3.86-1.74-5.21a4.24,4.24,0,0,1-.89-1.13c-.09-.48.07-1.25.36-1.23,3.24.3,2.47-2.54,3.29-4.13.24-5.61-.12-11.21.06-16.8.17-5.4,1.54-7.09,6.79-7.13q38.14-.3,76.29,0c5.16,0,6.11,1.19,6,6.33,0,2.52.54,5.1-.42,7.58,0,.32,0,.64,0,.95-1,1.12-.86,2.08.37,2.92.57.94,1.67,1.17,2.46,1.81-1.65,1.94-1.91,4.21-1.9,6.69q.07,41.43,0,82.86c0,1.92-.11,3.85,1,5.58a3.41,3.41,0,0,0,.92,3.77c-.79,1.14-1.95,1.94-1.91,3.67.13,6.22,0,12.45.08,18.68,0,2.06.54,2.57,2.55,2.62,3,.08,6.07,0,9.1.05a64.74,64.74,0,0,1,6.69.2c1.37.16,1.68-.43,1.85-1.49a1.74,1.74,0,0,1,2.05-1.53c1.21,0,1.6.84,1.66,1.91-2,1.2-.68,2.55-.35,4.13.63-.88.63-1.76,1.32-2.23a20.54,20.54,0,0,1,7.51-1c2.86.1,5.73,0,8.6,0a22.64,22.64,0,0,1,2.86.13,1.93,1.93,0,0,1,1.79,2.34c-.86,2.51-.52,5.06-.53,7.59,0,20.71,1.82,76.12.79,76.3-1.59.29-33.69-1.5-39.58-1.39-4.67.08-4.81.66-5,7-.12,3.7,1.34,4.61,4.76,4.58,15.43-.15,30.86-.05,46.3-.06,1.71.09,2.82.78,2.69,2.7-.94,1.92-2.78,2-4.52,2.12-2.23.2-4.48.1-6.72.1H110.06c-2.08,0-4.16-.11-6.23.09-1.38.14-3.24,0-3.3,2-.07,2.24,1.91,2.21,3.47,2.37,2.07.2,4.16.1,6.24.1q225.74,0,451.49.06c89.88.14,179.77,0,269.65.23,2.69,0,6.18-1.6,7.92,2.24-4.53,1.25-9.18,1-13.79,1H105.66c-1.76,0-3.53.07-5.28,0a3.88,3.88,0,0,1-4-3.93c-.26-6.07,0-6.63,6.14-6.63q113.26.06,226.51,0c1.6,0,3.21,0,4.8-.08,1.36-.08,1.84-.81,1.78-2.22-.11-2.71-.16-5.42-.27-8.14a19.34,19.34,0,0,0-.3-3.32c-.39-1.73-1.16-2.09-3.1-1.87a38.46,38.46,0,0,1-4.29.28H153c-5.54,0-5.76-.21-5.76-5.58q0-33.83,0-67.66C147.19,502.48,210.72,410.19,212.48,407.31Z" transform="translate(-15.5 -98.22)"/><path class="cls-2" d="M520.56,518.72l2.78.54c.82-.47.39-1.08.11-1.57-1-1.76-.93-3.68-.92-5.6q0-13.91,0-27.83,0-48.47,0-96.92c0-3,.66-6,.15-9-.12-.71.5-1.51.58-2.29.19-2,1.48-3.92.48-6a2.12,2.12,0,0,1,.06-1.4c.68-1.91,1.66-3.57,1.36-5.9-.23-1.88.85-4,1.64-5.9,1.07-2.58.1-5.41,1.29-8,.57-1.25.55-2.77,1.56-3.92.39-.45.34-1.28.72-1.75,1.36-1.73,0-3.77.73-5.54s2.49-3,2.09-5.22a2.19,2.19,0,0,1,.33-1.37c2-3.45,3-7.35,4.53-11a7.06,7.06,0,0,1,1.73-2.83,2.86,2.86,0,0,0,1-2.57c-.24-2.14.8-3.63,2.26-5,1.13-1.06,2.59-2,1.89-4a1,1,0,0,1,.3-.86c3.38-2.49,3.43-7.05,6.22-9.93,1.5-1.55,3-3.2,2.6-5.77-.1-.63.74-1.73,1.62-1.05,1.42,1.09,2,.5,2.34-.83.3-1.06.56-2.14.81-3.23a3.43,3.43,0,0,1,2-2.47,3.86,3.86,0,0,0,2.35-4.15,3.69,3.69,0,0,1,3.63-3.69c1.19-.11,1.78-.38,1.9-1.54a2.5,2.5,0,0,1,1.13-2,4,4,0,0,0,1.46-1.22c2-4.11,6-6.43,8.92-9.77,1.35-1.57,3.11-2.78,4.06-4.7a2.6,2.6,0,0,1,1.82-1.45,4,4,0,0,0,2.92-2.24c.28-.54.79-1.2,1.3-1.32,1.61-.36,2-1.8,3-2.73s2.44-1.33,3.57-2.28c2.91-2.46,6-4.73,8.94-7.14a5.6,5.6,0,0,1,3.31-1.73c.45,0,1.14-.21,1.28-.52,1.16-2.55,4.36-1.62,5.86-3.51,7.18-3.45,14.32-7,21.56-10.29a78.26,78.26,0,0,1,8.56-2.89c1.51-.49,3.06-.87,4.58-1.36,2.27-.74,4.47-1.74,7-1.58a2.56,2.56,0,0,0,1-.12c7.12-2.47,14.68-2.55,22-4.07a5.08,5.08,0,0,1,1.86-.11c6.36,1.1,12.76.23,19.13.48,3.5-1.26,6.84,0,10.24.61,3.12.58,6.29.89,9.43,1.35.94.13,1.87.35,2.8.52,3.6.67,7.09,1.76,10.69,2.49s6.85,2.53,10.55,2.81c4,2.24,8.6,3.11,12.51,5.55,3.08,1.91,6.78,2.75,9.46,5.37,2.11.26,3.6,1.9,5.54,2.5a13.85,13.85,0,0,1,6.8,4.2,9.1,9.1,0,0,0,2.73,1.88,9.81,9.81,0,0,1,3.74,2.92c.24.35.72.86,1,.81,2.4-.36,3.36,1.5,4.56,2.91.54.64,1,1.2,1.89,1.15.25,0,.53.31.78.49.91.67-.34,2.07.71,2.49.62.25,1.54-.33,2.27-.2s1.22,1,1.55,1.71c.67,1.52,1.5,2.8,3.45,2.82a2.22,2.22,0,0,1,1.9,1.3c1.06,2.05,2.86,3.43,4.4,5a5,5,0,0,1,1.72,3.29c.08,1.68.86.49,1.49.34,1.21-.27,2.8.71,2.7,1.94-.2,2.36.51,3.56,2.94,3.85,1.1.13,1.51,1.06,1.07,2.18-.51,1.32-.38,1.75,1.14,1,1.1-.52,2.13.14,1.84,1.14-.51,1.72-.28,2.77,1.57,3.18.62,2.2,3.33,2.95,3.67,5.38.26,1.83,3,1.68,3.12,3.34a4.71,4.71,0,0,0,2.22,3.47c1.31,1,2.44,2,2.26,3.86a3.45,3.45,0,0,0,1.52,2.87,16.49,16.49,0,0,1,3.45,5.13c2.61,4.94,5,10,7.65,14.93,1.41,2.59,2,5.65,3.41,8.35a7.6,7.6,0,0,0,1.42,2.43,3.4,3.4,0,0,1,1,4.3,2.5,2.5,0,0,0,.38,2.26c3.3,6.26,6.08,20.65,6.23,20.88,2.18,3.22,7.6,65,7.37,66.79s-1.45,2.31-2.94,2.63-2.89,0-4.12.87c-1.67,1.55-.88,3.77-1.5,5.6-.53,1.66-2,2.52-3.15,3.6a18.77,18.77,0,0,0-6.17,6.48c-3.65,5.95-7.06,12.05-10.72,18-.78,1.25,2.33,27.81,1.42,23.75.38-2.06,1.54-3.55,3.64-3.65,1.61-.07,1.6,1.59,1.89,2.77-.89,9-2.31,18-1.76,27.12-.14,14.79-1.81,29.48-2.74,44.21-.74,11.71-.92,23.47.55,35.17a11.91,11.91,0,0,1-.23,5.21,2.6,2.6,0,0,1-2.78,1.81,3.15,3.15,0,0,1-1.08-2.32c.21-3.37.07-6.75.11-10.12-.13-2.47.42-5-.81-7.37-.25-4.82-.24-9.64,0-14.45,1.23-2.37.7-4.94.82-7.43.19-3.35-.44-6.74.43-10.06.73-6.44,1.16-12.94,1.35-19.4.12-4.38,1.6-8.68.83-13.09-.25-.63-1.13.28-.55,0,.27-.13.44-.09.46.12.56,5.38-.64,10.67-.88,16-.2,4.73-.68,9.48-.74,14.24a4.89,4.89,0,0,1-.38,1.55c-.79,1.79-.45,3.69-.53,5.55-.07,3.51.14,7-.14,10.54-.92,1.73-.85,3.6-.82,5.47v6.4c.07,2.12-.32,4.31.79,6.31.34,4,0,8,.17,12,.09,2.84-1.34,4.16-4,4.21-10.39.19-20.78.17-31.17,0-2.91-.05-4.33-1.68-4.46-4.55-.09-1.92-.07-3.83-.07-5.75,0-63.63.28-127.25-.15-190.87A116.13,116.13,0,0,0,778.16,328c-10.71-16.4-24.32-29.46-41.72-38.52a89.49,89.49,0,0,0-45.13-10.62c-27.26.95-49.88,12-68.59,31.53-1.43,1.5-2.93,2.94-4.4,4.4a12.76,12.76,0,0,1-1,1.06l-.49.5c-.29.34-.6.67-.89,1-.81,1-1.63,2-2.45,3-.36.52-.72,1.05-1.06,1.58-1.4,2.16-2.79,4.32-4.29,6.4-.35.5-.71,1-1,1.5-.17.35-.37.69-.57,1-.26.52-.54,1.05-.8,1.58a17.39,17.39,0,0,1-2.61,4,9,9,0,0,0-.83,1.52,28.29,28.29,0,0,1-1.13,2.66c-.24.49-.52,1-.78,1.45a9.35,9.35,0,0,1-.49.94c-.25.45-.5.91-.72,1.39-.13.33-.27.65-.42,1-.18.52-.35,1-.52,1.58a19.27,19.27,0,0,1-1.06,2.73c-.22.54-.44,1.09-.63,1.64-.45,1.28-.86,2.57-1.28,3.86-.17.55-.35,1.08-.5,1.63-.15.74-.29,1.48-.51,2.2-.16.54-.36,1.06-.54,1.59a10.08,10.08,0,0,1-.57,1.56c-.58.61-.29,1.33-.26,2-1,2-1,4.22-1.42,6.34-.14.63-.33,1.26-.44,1.9-.16,1.09-.28,2.19-.54,3.27a11.52,11.52,0,0,0-.42,3.46,37.71,37.71,0,0,1-.36,6.88,12.06,12.06,0,0,0-.51,3.27c-.06,38.08,1.43,121.42-1.66,123.12-2.78,1.52-4.54-2.8-7.2-3.7-.48-.24-1-.52-1.41-.8-.22-.13-31.55,16.14-32.07,20.2-.4,3.1-.28,6.33-2.39,9-2.32.77-3.43-1.1-4.91-2.21-5.47-4.1-9.7-9.77-16.1-12.67C522.07,521.41,520.28,520.9,520.56,518.72Z" transform="translate(-15.5 -98.22)"/><path class="cls-2" d="M430.39,365.08c0-3,0-6.07-.05-9.1-.07-2.41-.85-3.19-3.12-3.35-1.12-.08-2.24,0-3.36,0q-37.12,0-74.25,0a38.45,38.45,0,0,0-4.3.15,2.35,2.35,0,0,0-2.15,2.22,22.88,22.88,0,0,0-.12,2.87c0,4-1.24,18.76-2,18.81-.76,1.11,0-15.61-.43-19.49-3.45,5.33-32.38,50.92-40.9,62.11-1.56,2-2.37,5-5.59,5.33-1.65-3.19-5-3.72-7.88-4.7-1.31-.44-2.73-.68-4.05-1.24-5.52-2.37-11.18-4.37-16.64-6.88a10.68,10.68,0,0,0-2.25-.77c-7.18-1.49-13.52-5.19-20.3-7.72-3.42-1.28-7.07-1.78-10.35-3.51-2.51-1.32-5.17-2.36-7.76-3.53A2,2,0,0,0,222,397c-2.07,3.15-5.19,5.52-6.62,9.14-.51,1.28,107.54-157.12,108-158.59,3.08-.19,6.05-.52,9-.52q46-.06,92,0c1.44,0,2.88,0,4.31.09a2.45,2.45,0,0,1,2.48,2.45c.13,1.42.1,2.87.1,4.3,0,22.38-.06,86.23,0,89.69.07,6,0,12,0,18C431.33,362.82,431.57,364.15,430.39,365.08Z" transform="translate(-15.5 -98.22)"/><path class="cls-4" d="M839.3,603.13a2.58,2.58,0,0,0-2.11-.91H106.24c-1.6,0-3.2,0-4.8,0-2.87-.09-3.17-.43-3.22-3.45,0-.48,0-1,0-1.44.11-2.29.52-2.7,2.92-2.79,1.44-.06,2.88,0,4.32,0H480.78c1.28,0,2.56,0,3.83-.08.94-.08,1.26-.84,1.38-1.69a.87.87,0,0,1,.89-.43,2.49,2.49,0,0,1,.82.66c.23.27.46.54.7.8l.42.32a10,10,0,0,0,1.57.62c2.5,1,5,2.24,7.31-.35.85-.61,1.65-1.3,2.51-1.91a2.17,2.17,0,0,1,1.26-.11c2.59,1,4.4,4.42,7.92,2.57.94-1.19,1.29-3.31,3.62-2.29,8.57,1.25,17.17.3,25.75.37,5.36,0,10.8,1,16.1-.69,1.49-.64,2.8,0,4.06.66,6.38,3.59,12.91,4.1,19.69,1.16,1.11-.49,2.31-1.19,3.63-.43a2.66,2.66,0,0,1,.76,3.08,6.33,6.33,0,0,1-4.14,2.94c82,0,165.09,0,248.13,0,3.47,0,6.83.23,10.08-2,2.87-2,3.13,1.26,3.85,3.05a2.73,2.73,0,0,1-.79,2.53C839.85,603.18,839.58,603.15,839.3,603.13Z" transform="translate(-15.5 -98.22)"/><path class="cls-5" d="M878.16,592.58c.07.85.39,1.66,1.31,1.78a32.52,32.52,0,0,0,3.95.13c9.25,0,18.49,0,27.74,0h258.5q30,0,59.92,0h1c5.33-.06,5.36,0,5.16,5.49-.06,1.46-.66,2.08-2.07,2.17s-2.64.07-4,.07H886.52c-1.49,0-3,0-4.46,0a4.36,4.36,0,0,0-2.7,1c-1.67-.89-1.6-2.67-2.24-4.09-.35-2.79-2.42-5.61.15-8.35C878,591.2,878,591.93,878.16,592.58Z" transform="translate(-15.5 -98.22)"/><path class="cls-6" d="M921,159.65H886c-1.27,0-2.55,0-3.82-.13a1.65,1.65,0,0,1-1.52-1.58,19,19,0,0,1-.11-2.39V135.88a21.14,21.14,0,0,1,.12-2.39,1.66,1.66,0,0,1,1.54-1.55,25,25,0,0,1,2.87-.13H957.5c.64,0,1.28,0,1.92,0,2.16.11,2.69.5,2.7,2.48q.09,11,0,22.05c0,2.34-.89,3.1-3.22,3.25-1.11.08-2.23,0-3.35,0Z" transform="translate(-15.5 -98.22)"/><path class="cls-7" d="M894,193.25c-11.35,0-22.69,0-34,0-4.25,0-4.29-.06-4.31-4.28,0-6.39,0-12.78,0-19.17,0-.8,0-1.6.07-2.4a1.83,1.83,0,0,1,1.76-1.9c1.11-.08,2.24-.08,3.35-.08h65.68c5.77,0,5.92.17,5.93,5.89s0,11.19,0,16.78c0,1,0,1.92,0,2.88-.12,1.71-.58,2.15-2.43,2.25-1.27.07-2.55,0-3.83,0Z" transform="translate(-15.5 -98.22)"/><path class="cls-8" d="M1274.13,346.84H1300c1,0,1.92,0,2.88,0,3.33.13,4,.9,3.26,4a18.8,18.8,0,0,0-.35,4.28q0,5.76,0,11.51a16.91,16.91,0,0,0,.62,5.68c.63,1.83-.24,2.63-2.1,2.57-4-.13-8-.7-12-.16-12.43,1.71-24.88.42-37.31.83-3.36.11-6.72.08-10.08,0-2.65-.07-3.43-.83-3.46-3.51q-.11-10.79,0-21.58c0-2.88.83-3.63,3.82-3.65,9.59-.05,19.19,0,28.78,0Z" transform="translate(-15.5 -98.22)"/><path class="cls-9" d="M883.89,126.05q-11.25,0-22.49,0c-1.28,0-2.56,0-3.83-.07a1.81,1.81,0,0,1-1.87-1.79c-.07-1-.08-1.91-.08-2.87,0-5.9,0-11.8,0-17.71a20.54,20.54,0,0,1,.18-3.33,2.26,2.26,0,0,1,1.93-1.89,18,18,0,0,1,2.85-.17h47.87c.64,0,1.28,0,1.91,0a2.71,2.71,0,0,1,2.78,2.71,21.13,21.13,0,0,1,.06,2.39v17.71a21.21,21.21,0,0,1-.08,2.39,2.51,2.51,0,0,1-2.44,2.49,31,31,0,0,1-3.34.1Q895.62,126.07,883.89,126.05Z" transform="translate(-15.5 -98.22)"/><path class="cls-10" d="M1299.28,407.31h-22.51c-1.28,0-2.56,0-3.83-.12a1.64,1.64,0,0,1-1.55-1.54,17.09,17.09,0,0,1-.12-2.38q0-9.58,0-19.16a13.47,13.47,0,0,1,.14-2.38,2.41,2.41,0,0,1,2.25-2.13,24.78,24.78,0,0,1,2.86-.12h45c.48,0,1,0,1.44,0,4.08.18,4.89,1,4.91,5.23,0,6.07,0,12.13,0,18.2,0,.48,0,1,0,1.44-.11,2.44-.46,2.83-2.74,2.94-1.11,0-2.23,0-3.35,0Z" transform="translate(-15.5 -98.22)"/><path class="cls-10" d="M100.68,303.64h34.51c6.19,0,6.24.06,6.26,6,0,5.59,0,11.18,0,16.77,0,1,0,1.92-.06,2.88-.12,1.44-.64,2-2.08,2.08-1.28.09-2.56.06-3.84.06-12,0-24,0-35.95,0-2.06,0-4.16-.31-6.16.48a3.6,3.6,0,0,1-2.33-.19,3.94,3.94,0,0,0-1.87-.19c-5.5,1.6-11.11.58-16.67.82-3,.13-6.07.08-9.1,0-2.68-.08-3.47-.82-3.5-3.46-.07-7.51,0-15,0-22.53,0-2.3.48-2.72,2.92-2.75,6.07-.05,12.14,0,18.21,0Z" transform="translate(-15.5 -98.22)"/><path class="cls-11" d="M488,160.61c.79-1,1.94-1,3.06-1h47.44a18.55,18.55,0,0,1,5.68.57,14.72,14.72,0,0,0,4.26.36c5.11,0,10.23,0,15.34,0,1,0,1.92,0,2.87.07a1.86,1.86,0,0,1,1.91,1.75,11.57,11.57,0,0,1,.07,1.44q0,10.06,0,20.12a12.19,12.19,0,0,1-.14,1.91,1.65,1.65,0,0,1-1.61,1.48c-1.27.1-2.55.1-3.83.11-7.19,0-14.37,0-21.56,0-2.86,0-5.73-.28-8.53.76a5.1,5.1,0,0,1-3.74-.31,5,5,0,0,0-3.75-.25c-2.49,1-5,.73-7.57.73q-12.94,0-25.88,0c-1.39,0-2.92.4-4-.94a4.66,4.66,0,0,1,4-1.34c12.91.51,25.8-1.24,39.32-.67-5.27.73-7.8-1.87-9.48-5.82s-2.17-8.37-2.44-12.66c-.22-3.67-1.72-5.07-5.34-5-6.71.12-13.43.08-20.15,0C491.81,162,489.63,162.3,488,160.61Z" transform="translate(-15.5 -98.22)"/><path class="cls-12" d="M79.89,338.2H95.2a31,31,0,0,1,3.34.09,2.53,2.53,0,0,1,2.5,2.43,6,6,0,0,1,.07.95c0,7,0,14,0,21.05,0,2.35-.88,3.1-3.18,3.28-.63.05-1.27,0-1.91,0-10.36,0-20.73,0-31.09,0-4.55,0-5-.45-5-4.83q-.06-10.05,0-20.09c0-2.43.43-2.85,2.78-2.88,5.74-.05,11.48,0,17.22,0Z" transform="translate(-15.5 -98.22)"/><path class="cls-12" d="M488,160.61c9.43,0,18.86,0,28.28,0,4.28,0,4.47.06,4.31,4.23-.15,3.72,1.11,7.21,1.24,10.89.07,1.95,1.2,4,2.22,5.75,1.15,2,2.88,3.44,5.49,3.12,1.1-.14,2.2-.24,3.31-.37a5,5,0,0,1,1.38-.24,1.42,1.42,0,0,1,1.28,1.24,1,1,0,0,1-1.13,1.2c-3.67.05-7.35.05-11,.09-2.55,0-5.08-.17-7.58.73a11.45,11.45,0,0,1-3.81.22H488a2.51,2.51,0,0,1-.94-2.07V162.68A2.51,2.51,0,0,1,488,160.61Z" transform="translate(-15.5 -98.22)"/><path class="cls-13" d="M456.25,495.67c0,1.43.05,2.87,0,4.3a.85.85,0,0,1-.57.58,1,1,0,0,1-.82-.31c-1.26-1.71-1.63-3.78-2.24-5.75-.29-1,.59-1.51,1.8-1.15a5.31,5.31,0,0,1,.86.43,8.48,8.48,0,0,0,.13.88c.27.35.55.69.85,1Z" transform="translate(-15.5 -98.22)"/><path class="cls-3" d="M484.14,579.12" transform="translate(-15.5 -98.22)"/><path class="cls-2" d="M430.39,368.92c-.63-.07-1.39-.12-1.54-.81-.26-1.17.71-1.61,1.53-2.08,0,.64,0,1.27,0,1.91.24.22.32.43.24.65s-.16.33-.25.33Z" transform="translate(-15.5 -98.22)"/><path class="cls-2" d="M434.3,365.12a2.94,2.94,0,0,1-2.94,2.87A5.21,5.21,0,0,1,434.3,365.12Z" transform="translate(-15.5 -98.22)"/><path class="cls-2" d="M433.25,332.45a2,2,0,0,1,1,1.88A1.87,1.87,0,0,1,433.25,332.45Z" transform="translate(-15.5 -98.22)"/><path class="cls-3" d="M456.27,495.66c-.28-.34-.57-.67-.86-1C455.7,495,456,495.32,456.27,495.66Z" transform="translate(-15.5 -98.22)"/><path class="cls-2" d="M520.58,518.72l-1-1A1.36,1.36,0,0,1,520.58,518.72Z" transform="translate(-15.5 -98.22)"/><path class="cls-3" d="M430.38,368.92c0-.33,0-.65,0-1l1,.05Z" transform="translate(-15.5 -98.22)"/><path class="cls-2" d="M432.32,331.46l.93,1Z" transform="translate(-15.5 -98.22)"/><path class="cls-14" d="M1170.36,490.06l.12-2.12h0c2,1.29,3.65,3.06,6,4a3.67,3.67,0,0,0,2.75-.08,1.78,1.78,0,0,1,.47,1.22c-.63,2.27-2.41,3.69-3.92,5.3l-.61.28c-.89-1.46-1.4-3.11-2.61-4.42A9.48,9.48,0,0,1,1170.36,490.06Z" transform="translate(-15.5 -98.22)"/><path class="cls-15" d="M1168.54,485.06c0,1,0,1.94,0,2.91a3.85,3.85,0,0,1-.78-.5C1166.47,486.1,1166.57,485.84,1168.54,485.06Z" transform="translate(-15.5 -98.22)"/><path class="cls-14" d="M1176.23,499.48l-.06,1.08a2.22,2.22,0,0,1-1.05-1.93l.38-.29C1176.15,498.46,1176.63,498.69,1176.23,499.48Z" transform="translate(-15.5 -98.22)"/><path class="cls-16" d="M340.63,355.58a1.07,1.07,0,0,1,.86-.19.86.86,0,0,1,.51.63c0,5.91.31,73,.07,96.3,0,1.44,0,2.88,0,4.32-.08,1.9,0,9.67,0,11.06,0,7.34,0,14.68,0,22,0,1.11,0,2.23-.15,3.34a1.63,1.63,0,0,1-1.58,1.5,27.43,27.43,0,0,1-2.87.1H253.22c-.64,0-1.28,0-1.91,0-1.94-.09,17.3-30.94,18-31.94,1.3-2,2.58-4,3.94-5.94C275.92,452.87,339.51,356.49,340.63,355.58Z" transform="translate(-15.5 -98.22)"/><path class="cls-17" d="M364.14,577.16c-.4-.1-.8-.08-1-.26a2.76,2.76,0,0,1-.7-1.14.91.91,0,0,1,.32-.81c2.34-.75,4.6-2.08,7.19-1.25a1.42,1.42,0,0,1,.69,1.1c0,.38-.35,1-.66,1.11C368,576.4,366,576.77,364.14,577.16Z" transform="translate(-15.5 -98.22)"/><path class="cls-18" d="M239.72,460.61a20.24,20.24,0,0,1,6.37,2.16,1.56,1.56,0,0,1,.46,1.22.89.89,0,0,1-1,.81,13.41,13.41,0,0,1-6.29-2,1,1,0,0,1-.42-1.23A4.44,4.44,0,0,1,239.72,460.61Z" transform="translate(-15.5 -98.22)"/><path class="cls-19" d="M405.09,378.39c.26.08-.22,0-.62-.19a.7.7,0,0,1-.23-1.14,3.37,3.37,0,0,1,1.51-1c1.81-.44,3.65-.78,5.49-1,.33-.05.88.37,1.09.71a1,1,0,0,1-.64,1.49C409.78,377.83,407.92,378.79,405.09,378.39Z" transform="translate(-15.5 -98.22)"/><path class="cls-20" d="M335.31,463.91a7.62,7.62,0,0,1-1.35,0c-1.84-.34-2-.64-1.45-2.78,1.05-1.16,2.74.07,3.8-1h0c1.23.06,2.46.09,3.69.21.2,0,.47.4.52.64a.93.93,0,0,1-.24.8,11.36,11.36,0,0,1-2.49,1.13C336.91,463.13,335.93,463,335.31,463.91Z" transform="translate(-15.5 -98.22)"/><path class="cls-17" d="M340,579.25a27.34,27.34,0,0,1-3.1-.41,1.44,1.44,0,0,1-.84-1,1.31,1.31,0,0,1,.62-1.1,10.44,10.44,0,0,1,6.47-.1,1.38,1.38,0,0,1,.58,1.14,1.46,1.46,0,0,1-.74,1.08A21.8,21.8,0,0,1,340,579.25Z" transform="translate(-15.5 -98.22)"/><path class="cls-21" d="M418.52,375.65c-.29-.21-.76-.4-1-.74-.32-.5.09-1,.5-1.15,2-1,4-2,6.29-1.82.27,0,.72.28.74.48.06.43.06,1.11-.2,1.3A10.44,10.44,0,0,1,418.52,375.65Z" transform="translate(-15.5 -98.22)"/><path class="cls-22" d="M447.27,539.22c-.08-.16-.54-.67-.43-.92a19.05,19.05,0,0,1,3.65-5.94c.16-.16.62-.12.89,0,.48.15.88.57.71,1-.74,2.09-1.54,4.17-3.3,5.66A1.16,1.16,0,0,1,447.27,539.22Z" transform="translate(-15.5 -98.22)"/><path class="cls-23" d="M353.83,378.42c1.1.09,2.21.11,3.3.28a1.18,1.18,0,0,1,1,1.36,1.31,1.31,0,0,1-1.24,1.2,10.64,10.64,0,0,1-6-1c-.4-.17-.88-.51-.56-1.09.14-.25.4-.56.64-.59C351.92,378.5,352.87,378.48,353.83,378.42Z" transform="translate(-15.5 -98.22)"/><path class="cls-24" d="M269.15,465.82l2.82.08c.52.56,1.42.36,1.93,1h0a2.63,2.63,0,0,1-2,1.76c-2,.17-4.05.47-5.93-.57-.35-.19-.82-.62-.81-.92a1.31,1.31,0,0,1,.8-1A26.79,26.79,0,0,1,269.15,465.82Z" transform="translate(-15.5 -98.22)"/><path class="cls-25" d="M404.07,568.57c-.71-.27-1.19-.42-1.16-1,0-.3.06-.71.25-.85a22,22,0,0,1,6-2.55c.47-.16,1.14.75,1,1.31s-.26,1-.59,1.23A11.52,11.52,0,0,1,404.07,568.57Z" transform="translate(-15.5 -98.22)"/><path class="cls-26" d="M395.77,568.56a2.84,2.84,0,0,1,.9.23,1.12,1.12,0,0,1,.48.69,1,1,0,0,1-.29.8,13.87,13.87,0,0,1-6.67,1.84.85.85,0,0,1-.82-1c.06-.42.24-1.1.51-1.17C391.82,569.45,393.68,568.49,395.77,568.56Z" transform="translate(-15.5 -98.22)"/><path class="cls-27" d="M395.4,377.51a15.16,15.16,0,0,1,2,.15c.44.09,1,.28.92.89a1.82,1.82,0,0,1-.58,1.18,7.15,7.15,0,0,1-5.95.3c-.23-.07-.42-.46-.48-.74a1.08,1.08,0,0,1,.46-1.23C392.9,377.3,394.23,377.74,395.4,377.51Z" transform="translate(-15.5 -98.22)"/><path class="cls-28" d="M381,381.41a3.68,3.68,0,0,1-.47,0c-.89-.1-1.94.24-2.45-.89-.36-.8.7-1.78,2.17-1.89a26.27,26.27,0,0,1,3.32,0c.85.06,1.57.5,1.5,1.45s-.86,1.25-1.7,1.29-1.58,0-2.37,0Z" transform="translate(-15.5 -98.22)"/><path class="cls-29" d="M352,578.21c-.56-.07-1.34-.11-2.09-.27a.93.93,0,0,1-.5-.66.89.89,0,0,1,.32-.76,10.69,10.69,0,0,1,5-1.18,6.52,6.52,0,0,1,1.4.13c.43.11,1,.32.85.91a2.09,2.09,0,0,1-.64,1.14C355.11,578.44,353.62,578,352,578.21Z" transform="translate(-15.5 -98.22)"/><path class="cls-28" d="M227.09,455.47c.15,0,.33-.12.46-.07,2.21.77,4.41,1.6,6,3.38a1,1,0,0,1,.19.85.94.94,0,0,1-.75.42,10.23,10.23,0,0,1-6.57-3.15,1,1,0,0,1-.06-.87C226.51,455.79,226.85,455.65,227.09,455.47Z" transform="translate(-15.5 -98.22)"/><path class="cls-28" d="M221.81,452.33c0,.14,0,.35-.14.41s-.58.4-.8.34a8.46,8.46,0,0,1-5.27-4.43,1.56,1.56,0,0,1,.24-1.28.81.81,0,0,1,1.24-.15c1.51,1.38,3,2.8,4.46,4.24C221.73,451.65,221.72,452,221.81,452.33Z" transform="translate(-15.5 -98.22)"/><path class="cls-21" d="M208.34,436.5c.43.06.83,0,1,.15a11.6,11.6,0,0,1,3,5.66c.08.28-.36.78-.68,1.05a.87.87,0,0,1-.84-.12,10.79,10.79,0,0,1-3-5.64C207.73,437.28,208.16,436.84,208.34,436.5Z" transform="translate(-15.5 -98.22)"/><path class="cls-21" d="M428.6,557.86c-.24-.17-.59-.3-.7-.53a1,1,0,0,1,0-.87c1.7-1.33,3.42-2.64,5.19-3.86.21-.14.88.19,1.2.46a.87.87,0,0,1,.1,1.25,13.92,13.92,0,0,1-5.37,3.6C428.93,558,428.76,557.88,428.6,557.86Z" transform="translate(-15.5 -98.22)"/><path class="cls-30" d="M416.47,563.8c-.42-.28-.77-.39-.88-.63a.91.91,0,0,1,.08-.84,18.47,18.47,0,0,1,5.77-3c.47-.18.89.22,1.05.68a1.06,1.06,0,0,1,0,.88A8.81,8.81,0,0,1,416.47,563.8Z" transform="translate(-15.5 -98.22)"/><path class="cls-31" d="M444.41,544.5c0,.16.08.35,0,.46a16,16,0,0,1-4.9,5,.93.93,0,0,1-.83-.16c-.19-.17-.38-.65-.28-.8,1.2-1.82,2-4,4.09-5.06a2.2,2.2,0,0,1,1.35-.09C444.07,543.88,444.23,544.27,444.41,544.5Z" transform="translate(-15.5 -98.22)"/><path class="cls-32" d="M456.29,521.45a10.55,10.55,0,0,1-1.39,5.15,1.13,1.13,0,0,1-1.63.39,1.38,1.38,0,0,1-.65-1.12c.44-1.65,1-3.27,1.59-4.87.21-.55.62-1.17,1.39-.86A1.23,1.23,0,0,1,456.29,521.45Z" transform="translate(-15.5 -98.22)"/><path class="cls-33" d="M383.8,572.54c-.15.25-.23.6-.46.74-2,1.28-6.37,1.83-7,.91a.57.57,0,0,1-.1-.45c.4-1.31,4.06-2.49,6.72-2.14A.84.84,0,0,1,383.8,572.54Z" transform="translate(-15.5 -98.22)"/><path class="cls-34" d="M254.06,464.16c1.34,1.13,3.48.27,5.19,1.24.42.24.77.69.5,1.17s-.69.88-1,.84a54.76,54.76,0,0,1-5.58-1,1.23,1.23,0,0,1-.93-1.47C252.43,464.14,253.06,464.09,254.06,464.16Z" transform="translate(-15.5 -98.22)"/><path class="cls-35" d="M338.23,379.49c-1.16-1.93-1-2.54.89-2.79a16.8,16.8,0,0,1,1.88-.05,3,3,0,0,0,2.06.89c.81.07,1.65.32,1.51,1.29s-.85,1.1-1.75,1C341.29,379.66,339.76,379.6,338.23,379.49Z" transform="translate(-15.5 -98.22)"/><path class="cls-36" d="M203.84,425.62a4.47,4.47,0,0,1,.26-1,.91.91,0,0,1,.71-.43,1,1,0,0,1,.74.41,12.12,12.12,0,0,1,.63,1.78c.46,1.5,1.08,3,0,4.49a.52.52,0,0,1-.46,0c-1.62-.86-1.72-2.44-1.86-4C203.82,426.57,203.84,426.25,203.84,425.62Z" transform="translate(-15.5 -98.22)"/><path class="cls-37" d="M367.84,379.42a7.51,7.51,0,0,1,3,.33c.35.17.53.41.37.76s-.3.64-.51.68a14.76,14.76,0,0,1-5.62,0,1.45,1.45,0,0,1-1-.83c-.29-1,.61-.89,1.15-.95A23.71,23.71,0,0,1,367.84,379.42Z" transform="translate(-15.5 -98.22)"/><path class="cls-23" d="M457.42,510.15c-.14,1.08-.19,1.88-.36,2.65,0,.21-.42.4-.68.52a.51.51,0,0,1-.76-.38,12.83,12.83,0,0,1-.07-5.65c0-.21.42-.4.68-.52a.5.5,0,0,1,.75.38C457.17,508.23,457.3,509.33,457.42,510.15Z" transform="translate(-15.5 -98.22)"/><path class="cls-38" d="M589.9,584l.84-1.26c2.41.54,1.88,2.6,2.15,4.22s-.43,3.5,1.54,5.19c1.19-3.66.55-7.15.69-10.57,0-1.63,0-3.25-.14-4.87,0-5.68,0-11.37.08-17.05-.3-55-.12-110-.2-165a119.4,119.4,0,0,1,2.23-21.43c.38-2.07.37-4.62,3.16-5.39,2,2,1.3,4.48,1,6.82a215.52,215.52,0,0,0-2.19,32c-.13,45.88,0,91.77-.12,137.65,0,7.37,1.27,14.64,1.06,22-.16,5.43-.06,10.85-.74,16.27-.38,3.09-1,6.39,1.06,9.27,1.56,1.5,3.53,1.3,5.44,1.3q88.24,0,176.49,0c5.16,0,5.81-.64,5.81-5.8q0-98.8,0-197.61a15.15,15.15,0,0,0-.52-4.74q-1-8.26-2.57-16.47c-.36-1.9-1.23-4.11,1.15-5.52,2,1,2.43,2.92,2.78,4.79,1.51,8,3.09,16,3.08,24.21q-.12,95.7,0,191.41c0,2.35-.42,4.78.75,7.37,1.22-1.74.92-3.49.92-5.12q0-97.86,0-195.72c0-6.56-1.9-13-1.42-19.55a3.94,3.94,0,0,1,.82-1.52,1.26,1.26,0,0,1,1.51.21c.85,1.37.85,3,1.39,4.48a8.64,8.64,0,0,1,.17,1.53c-.14,2.11.63,4.09.94,6.15,0,.58.07,1.15.12,1.73a38.42,38.42,0,0,1,.33,7.65q0,96.76,0,193.52a41.76,41.76,0,0,0,.24,7.16,3.51,3.51,0,0,0,1,1.32c6.15,1.17,12.36.3,18.53.53,6.51.24,13-.35,19.54.32a6.07,6.07,0,0,1,1.53.86l1.59-.76c2.17,1.75,1.7,3.73.5,5.78-.09.61-.19,1.22-.28,1.82-1.21-.75-.48-2.49-1.55-3.29-.25.07-.52.08-.54.16-.77,2.73-2.63,3.26-5.3,3.25-19.18-.11-38.35-.06-57.53-.06H577.73c-1.59,0-3.19,0-4.78-.1a.8.8,0,0,1-.54-.56.93.93,0,0,1,.39-.76,5.82,5.82,0,0,1,1.82-.47,19.63,19.63,0,0,0,6.37-1.9,3.78,3.78,0,0,0,2-1.95l.45-.49a4.54,4.54,0,0,1,1.19-.47c1.5-.42,3.27.34,4.55-1,.08-.4.17-.78.22-1.18.21-2.15-.17-4.32.4-6.44C590,585.24,590.34,584.63,589.9,584Z" transform="translate(-15.5 -98.22)"/><path class="cls-39" d="M796.1,381.39a4.62,4.62,0,0,1,0-.91c-1.15-1.8.3-4-.93-5.81a4.52,4.52,0,0,1,0-.9c-1-1.14.11-2.75-.9-3.88a5.8,5.8,0,0,1-.05-.93c-2.12-2.85-2.12-6.39-3.14-9.6-.14-.69-.38-1.35-.58-2-2.63-7.28-4.75-14.79-9.6-21-5.3-7.33-9.91-15.11-16.11-21.83-10.86-11.79-23.38-21-38.46-26.58-18.94-7.12-38.11-8.21-57.65-2.63a95,95,0,0,0-25.2,11.28c-.37.29-.76.54-1.14.79a27,27,0,0,0-2.78,1.68,11.38,11.38,0,0,1-1,.7,20,20,0,0,0-3.73,3,7.15,7.15,0,0,1-1,.71c-.92.5-1.9.89-2.86,1.32-4.48,2.71-7.46,7-11.28,10.44a16,16,0,0,0-1.14,1.44,10.75,10.75,0,0,1-.67,1,37.71,37.71,0,0,0-2.49,3.28,13,13,0,0,1-1.07,1.38,15.32,15.32,0,0,0-2,2.75c-.66,1-1.31,1.9-1.9,2.89-.54.82-1.11,1.63-1.58,2.49s-.74,1.46-1.13,2.18a8.66,8.66,0,0,1-.66,1.1,55.74,55.74,0,0,0-6,12.71,15.41,15.41,0,0,1-.62,1.45,109.74,109.74,0,0,0-9.1,42.29c-.43,41.67-.14,83.35-.18,125,0,2.44.55,5.09-1.94,7.81-1.49-6.1-4.68-10.35-9.69-13.11-2.55-1.39-5.45-1.31-8.2-1.84a3.93,3.93,0,0,1-1.79-1.24,3.17,3.17,0,0,1-.51-2,8.74,8.74,0,0,1,.49-1.87,25.23,25.23,0,0,1,1.35-3.33c.22-.53.45-1.06.63-1.61s.32-1.12.51-1.67.37-1.13.55-1.7a40.47,40.47,0,0,0,1.15-5.33c.14-.58.31-1.15.45-1.73a8.44,8.44,0,0,0,.05-2.88c-.13-.57-.27-1.13-.44-1.69a18.73,18.73,0,0,0-1.15-4c-.3-.53-.62-1-1-1.55a12,12,0,0,0-7.46-5.8c-3.54-1.17-7.18-.55-10.77-.63-3-.08-18.92,14.39-19.25,14l-1.92-2.88a12.42,12.42,0,0,0-1-1,6.61,6.61,0,0,1-1-2.88c-.59-.51-.34-1.43-1-1.92-.2-3.88,2.63-5.95,5-8.31,2.09-2.11,4.72-2.47,7.51-2.25.29.35.64.63,1,.95h3.84c.28.36.66.61,1,.95,3.83,0,7.65,0,11.48,0a15.65,15.65,0,0,1,13.48,6.73c.31.32.63.65,1,1s.61.67,1,1l1,1.92c.34.29.6.68,1,1v3.84c.32.31.6.67,1,1,0,2.3.14,4.61-.78,6.84a8.59,8.59,0,0,0-.18,2.75c-.36.28-.62.67-1,1l-1.92,5.76c-.35.29-.64.65-1,1-.76,3.76-.76,3.76,2.95,3.84.62,0,1.23,0,1.85,0a12.42,12.42,0,0,0,1,1q.46.49,1,1a8.46,8.46,0,0,1,5,2.58c.89.88,1.84,1.7,2.75,2.53,1.5-.81.87-2.06.87-3.05q.06-29.43,0-58.87V388.11c.61-.49.37-1.41,1-1.92,0-2.56,0-5.12,0-7.68.92-.76.08-2.1,1-2.88v-3.84c.36-.27.61-.66.95-1-.13-2.75-.17-5.48,1.92-7.68a.57.57,0,0,1-.23-.64c.08-.21.15-.32.23-.32,0-.64,0-1.28,0-1.92a12.3,12.3,0,0,0,.95-1c0-1,0-1.92,0-2.88a12.3,12.3,0,0,0,.95-1c-.28-1.72.88-3.15,1-4.79.35-.29.63-.65,1-1,.32-1.28.64-2.56,1-3.84.36-.28.61-.67,1-1v-1c.35-.29.63-.65,1-1v-1c.35-.28.63-.64.95-.95.32-1.28.64-2.56,1-3.84.36-.28.61-.67,1-1q1.44-2.4,2.87-4.8c.36-.29.64-.65,1-1v-1c.36-.29.64-.65,1-1l4.8-7.68c.37-.28.62-.67,1-1l1.92-2.88a12.42,12.42,0,0,0,1-1h0c.33-.31.65-.64,1-1,.7-.86,1.34-1.78,2.12-2.57,2.57-2.63,5.28-5.13,7.77-7.84,4.36-4.75,9.8-8.06,15-11.77,3-2.16,6.63-3.1,9.44-5.5a5.78,5.78,0,0,1,1.71-.83c4.58-1.83,9.12-3.73,13.74-5.41a30.55,30.55,0,0,1,6.49-1.48,31.54,31.54,0,0,0,4.65-1,28.64,28.64,0,0,1,9-1.06c2.22.08,4.48.29,6.63-.66a1.93,1.93,0,0,1,1.4,0c2.62,1.09,5.38.49,8.06.74a69.36,69.36,0,0,1,8,1.11c6.52,1.39,13,2.84,19,6.15,2.86,1.59,6.07,2.64,9.07,4.13,5.49,2.71,10.3,6.36,15.3,9.76a22.75,22.75,0,0,1,3.26,2.8c3.75,3.7,7.44,7.48,11.21,11.17a44.2,44.2,0,0,1,8.73,11.3,15,15,0,0,0,1.63,2.36c4.17,5.32,7,11.41,9.62,17.56,1.9,4.49,4.26,8.89,4.93,13.85.26,1.91,1.56,3.45,1.91,5.39a105.9,105.9,0,0,1,1.9,11.74,33.33,33.33,0,0,0,1.2,7.52,23.19,23.19,0,0,1,.65,7.11q0,97.4,0,194.8c0,1.59,0,3.2,0,4.79s.57,2.17,2.39,2.29c1,.06,1.92,0,2.88,0q13.44,0,26.87,0c1.27,0,2.55-.07,3.82-.19a1.37,1.37,0,0,0,1.24-1.26,22.91,22.91,0,0,0,.17-2.87c0-3.67,0-7.35,0-11-1.2-1.77.29-4-1-5.76v-6.72c1.19-1.43-.17-3.36,1-4.8V547.46c1.19-1.43-.17-3.36,1-4.8v-1c.86-.21,1.34-.06,1,1,0,3.52,0,7,0,10.56-1.27,2.11.29,4.61-.94,6.72V575.3c1.23,2.11-.33,4.61.94,6.72,0,3.52,0,7,0,10.56a4,4,0,0,1-2.5.91c-12.92.07-25.84,0-38.76,0h0c-.93-1.82-.45-3.77-.45-5.65q0-100.43,0-200.84C796.57,385.16,797.08,383.2,796.1,381.39Z" transform="translate(-15.5 -98.22)"/><path class="cls-40" d="M838.34,542.66l-1-1c0-2.86,0-5.72,0-8.58,0-2.22-.22-4.45.71-6.58a4,4,0,0,0,.22-1.88c-.5-5.26.93-10.39,1-15.61,0-.16,0-.36,0-.47s.4-.53.61-.53a1,1,0,0,1,.74.45,16.13,16.13,0,0,1,.17,8.44,31.82,31.82,0,0,0-.65,6.12c-.06,3.16.06,6.28-.75,9.44-.57,2.25-.18,4.74-.21,7.12C839.29,540.74,839.38,541.87,838.34,542.66Z" transform="translate(-15.5 -98.22)"/><path class="cls-40" d="M840.19,483.09c.3-.08.6-.2.91-.26.57-.11,1,.25.75.71-1.68,2.82-4.34,4.59-7.16,6a3.6,3.6,0,0,1-4.07-.42c-2.68-2.46-1.25-3.43-.86-3.16l0,0c2.22,2.07,4.45,2,6.68,0a18,18,0,0,0,2.87-1.95l0,0a3.3,3.3,0,0,0,1-1Z" transform="translate(-15.5 -98.22)"/><path class="cls-41" d="M543.56,489.84l.12,4.82c-.29-.36-.82-.72-.83-1.08,0-1.85-1.2-2.67-2.61-3.58-2.22-1.42-5.55-4.93-5.23-4.93C538.84,484.91,541.35,487.12,543.56,489.84Z" transform="translate(-15.5 -98.22)"/><path class="cls-40" d="M837.39,559.94c0-1.56,0-3.12,0-4.68a2.45,2.45,0,0,1,.93-2v4.68A2.48,2.48,0,0,1,837.39,559.94Z" transform="translate(-15.5 -98.22)"/><path class="cls-40" d="M838.33,582a2.46,2.46,0,0,1-.93-2c0-1.56,0-3.12,0-4.68a2.46,2.46,0,0,1,.94,2Z" transform="translate(-15.5 -98.22)"/><path class="cls-40" d="M841.2,491.51a5.61,5.61,0,0,1-.27,1.29.87.87,0,0,1-.73.4.78.78,0,0,1-.51-.59,3.73,3.73,0,0,1,.41-1.3c.13-.25.43-.41.65-.61Z" transform="translate(-15.5 -98.22)"/><path class="cls-40" d="M835.46,570.5a2.39,2.39,0,0,1,.95,2c0,1.25,0,2.49,0,3.74a2.4,2.4,0,0,1-.94-2C835.47,573,835.47,571.74,835.46,570.5Z" transform="translate(-15.5 -98.22)"/><path class="cls-40" d="M836.42,559c-.22,1.62.62,3.45-1,4.8C835.68,562.16,834.85,560.33,836.42,559Z" transform="translate(-15.5 -98.22)"/><path class="cls-40" d="M837.38,542.66c-.22,1.62.62,3.45-1,4.8C836.64,545.84,835.8,544,837.38,542.66Z" transform="translate(-15.5 -98.22)"/><path class="cls-40" d="M836.42,592.58h1.92v1.74h-1C836.68,593.93,835.82,593.63,836.42,592.58Z" transform="translate(-15.5 -98.22)"/><path class="cls-41" d="M589.72,375.63c0,1.06.17,2.19-1,2.88C588.8,377.46,588.6,376.33,589.72,375.63Z" transform="translate(-15.5 -98.22)"/><path class="cls-41" d="M588.76,386.19a2,2,0,0,1-1,1.92A2,2,0,0,1,588.76,386.19Z" transform="translate(-15.5 -98.22)"/><path class="cls-41" d="M529.25,476.43a2,2,0,0,1,1,1.92A2,2,0,0,1,529.25,476.43Z" transform="translate(-15.5 -98.22)"/><path class="cls-41" d="M579.17,507.14l-1-1Z" transform="translate(-15.5 -98.22)"/><path class="cls-41" d="M572.45,501.38l1-1Z" transform="translate(-15.5 -98.22)"/><path class="cls-41" d="M547.49,467.78l-1-.95Z" transform="translate(-15.5 -98.22)"/><path class="cls-41" d="M542.69,466.82l-1-.95Z" transform="translate(-15.5 -98.22)"/><path class="cls-41" d="M575.33,494.66l1-1Z" transform="translate(-15.5 -98.22)"/><path class="cls-41" d="M590.68,370.83l-.95,1Z" transform="translate(-15.5 -98.22)"/><path class="cls-41" d="M592.6,362.19v1c-.37-.13-.52-.37-.36-.68C592.3,362.35,592.48,362.29,592.6,362.19Z" transform="translate(-15.5 -98.22)"/><path class="cls-41" d="M593.56,359.31l-.95,1Z" transform="translate(-15.5 -98.22)"/><path class="cls-41" d="M594.52,355.47l-.95,1Z" transform="translate(-15.5 -98.22)"/><path class="cls-41" d="M596.44,349.72l-1,1Z" transform="translate(-15.5 -98.22)"/><path class="cls-41" d="M598.36,344.92l-1,1Z" transform="translate(-15.5 -98.22)"/><path class="cls-41" d="M599.32,343l-1,1Z" transform="translate(-15.5 -98.22)"/><path class="cls-41" d="M600.28,341.08l-.95.95Z" transform="translate(-15.5 -98.22)"/><path class="cls-41" d="M602.21,336.28l-1,1Z" transform="translate(-15.5 -98.22)"/><path class="cls-41" d="M577.25,484.11l-1-1Z" transform="translate(-15.5 -98.22)"/><path class="cls-41" d="M606,330.52l-1,1Z" transform="translate(-15.5 -98.22)"/><path class="cls-41" d="M607,328.6l-1,1Z" transform="translate(-15.5 -98.22)"/><path class="cls-41" d="M531.17,481.23l1,1Z" transform="translate(-15.5 -98.22)"/><path class="cls-41" d="M612.76,320l-1,1Z" transform="translate(-15.5 -98.22)"/><path class="cls-41" d="M576.29,479.31l-1-1Z" transform="translate(-15.5 -98.22)"/><path class="cls-41" d="M615.64,316.12l-1,1Z" transform="translate(-15.5 -98.22)"/><path class="cls-41" d="M574.37,476.43l-1-1Z" transform="translate(-15.5 -98.22)"/><path class="cls-41" d="M573.41,475.47l-1-1Z" transform="translate(-15.5 -98.22)"/><path class="cls-41" d="M616.6,315.16l-1,1Z" transform="translate(-15.5 -98.22)"/><path class="cls-41" d="M578.21,506.18l-1-1Z" transform="translate(-15.5 -98.22)"/><path class="cls-42" d="M328.25,375.66l.44,0c1,0,1.88.24,2.27,1.31a.56.56,0,0,1-.08.45c-.78,1.06-1.69.36-2.56.18a3.88,3.88,0,0,1-.45-.14c-.49-.17-.84-.47-.71-1S327.73,375.73,328.25,375.66Z" transform="translate(-15.5 -98.22)"/><path class="cls-43" d="M1198.3,523.45c0,1.07.18,2.2-1,2.89C1197.37,525.28,1197.2,524.15,1198.3,523.45Z" transform="translate(-15.5 -98.22)"/><path class="cls-44" d="M583,595.47a2.16,2.16,0,0,1-1-2v0l.48-.32a1,1,0,0,1,.93.55,1.41,1.41,0,0,1-.38,1.57Z" transform="translate(-15.5 -98.22)"/><path class="cls-45" d="M487.12,593.47l.88,1A1.18,1.18,0,0,1,487.12,593.47Z" transform="translate(-15.5 -98.22)"/><path class="cls-45" d="M488,594.47l.91.88A1.13,1.13,0,0,1,488,594.47Z" transform="translate(-15.5 -98.22)"/><path class="cls-46" d="M1179.2,492.75a4.7,4.7,0,0,1,0-.92l.9,0c0,.19.09.39.13.59A.82.82,0,0,1,1179.2,492.75Z" transform="translate(-15.5 -98.22)"/><path class="cls-46" d="M1180.07,491.79l.94-1,.06.11c.23.86-.17,1.09-.94.93Z" transform="translate(-15.5 -98.22)"/><path class="cls-47" d="M1183.91,490.82l.91-1Z" transform="translate(-15.5 -98.22)"/><path class="cls-14" d="M1170.48,487.94c-.14-.07-.39-.17-.38-.21.07-.31.21-.24.37.22Z" transform="translate(-15.5 -98.22)"/><path class="cls-48" d="M105.71,304.6c-2.46,1.67-5.11,2.61-7.2,4.65a5.93,5.93,0,0,0-1.88,2.68c-.8,3.07-1.58,6.15-1.26,9.4a6.69,6.69,0,0,0,3.15,5.54c2,1.26,3.89,2.64,6.27,2.9.06,1-.6.72-.92.72q-19.4,0-38.78,0c-4.21,0-4.24-.06-4.26-4.31,0-5.74,0-11.49,0-17.23,0-.8,0-1.6.07-2.39a1.85,1.85,0,0,1,1.76-1.9,11.32,11.32,0,0,1,1.43-.07Z" transform="translate(-15.5 -98.22)"/><path class="cls-45" d="M490.91,593.49l-1-.85Z" transform="translate(-15.5 -98.22)"/><path class="cls-49" d="M516.7,518.64l-.9-.85A1,1,0,0,1,516.7,518.64Z" transform="translate(-15.5 -98.22)"/><path class="cls-49" d="M510.05,514.93l-.84.85A1,1,0,0,1,510.05,514.93Z" transform="translate(-15.5 -98.22)"/><path class="cls-49" d="M510,527.34a1.35,1.35,0,0,1,1,1Z" transform="translate(-15.5 -98.22)"/><path class="cls-50" d="M507.16,524.43l1,1Z" transform="translate(-15.5 -98.22)"/><path class="cls-51" d="M322,466c-.72-.12-1.35-.21-2-.34a1.09,1.09,0,0,1-.41-1.59,7.26,7.26,0,0,1,7.09-1.74c.66.15,1.05,1.58.51,2a6.62,6.62,0,0,1-2,1.21A22.7,22.7,0,0,1,322,466Z" transform="translate(-15.5 -98.22)"/><path class="cls-52" d="M283.22,469.66c-1.53,0-2.81.12-3.83-.86a1.3,1.3,0,0,1-.06-1.67,6.29,6.29,0,0,1,7-.21,1.41,1.41,0,0,1,.51,1.16,2.25,2.25,0,0,1-.77,1.08,1.61,1.61,0,0,1-.84.37C284.49,469.61,283.71,469.63,283.22,469.66Z" transform="translate(-15.5 -98.22)"/><path class="cls-53" d="M307.51,467.74c-1.06-.23-1.61-.53-1.67-1.27a1.18,1.18,0,0,1,1-1.35c1.87-.32,3.74-.6,5.62-.78.36,0,.84.41,1.14.74s.26,1.15-.08,1.24C311.43,466.9,309.28,467.34,307.51,467.74Z" transform="translate(-15.5 -98.22)"/><path class="cls-23" d="M297.48,465.86c1.87,0,3.1.53,2.82,1.15a2.75,2.75,0,0,1-2.29,1.48c-1.55.26-3.16.57-4.66-.25a1.26,1.26,0,0,1-.54-.73,1,1,0,0,1,.58-1.14C294.72,465.63,296.19,466,297.48,465.86Z" transform="translate(-15.5 -98.22)"/><path class="cls-3" d="M336.31,460.11c-1,1.33-2.49.85-3.8,1C333.46,459.63,335,460.23,336.31,460.11Z" transform="translate(-15.5 -98.22)"/><path class="cls-3" d="M273.9,466.85a2.21,2.21,0,0,1-1.93-1A1.81,1.81,0,0,1,273.9,466.85Z" transform="translate(-15.5 -98.22)"/><path class="cls-3" d="M481.26,590.72a1.92,1.92,0,0,1,1.92.89A1.92,1.92,0,0,1,481.26,590.72Z" transform="translate(-15.5 -98.22)"/><path class="cls-54" d="M466,583l.94.89A1.09,1.09,0,0,1,466,583Z" transform="translate(-15.5 -98.22)"/><path class="cls-54" d="M465,582l.95.92A1.16,1.16,0,0,1,465,582Z" transform="translate(-15.5 -98.22)"/><path class="cls-55" d="M600.26,367.94a2.52,2.52,0,0,0-.92,1.61c-.77,4.22-1.43,8.47-2.08,12.72-1.09,7.16-.79,14.32-.79,21.49q0,76.41.07,152.82c0,1.12-.09,2.23-.14,3.35-1.61.15-1.85-1.17-1.93-2.18-.44-5.86-.22-11.77-1.55-17.43-.32.17-.39,1.21-1.28,1.35a2.91,2.91,0,0,1-.9-2.5,14.45,14.45,0,0,0-.76-5c.85-5.51.6-11.1.62-16.63.16-41.9,0-83.81.14-125.71a113.35,113.35,0,0,1,9.66-45.92l0,.07a78.75,78.75,0,0,1,6.76-13.49l0,.08a7.94,7.94,0,0,1,.78-.94,16.51,16.51,0,0,0,3-4.49,4.61,4.61,0,0,1,.62-1.05,6,6,0,0,0,1.35-2,4.74,4.74,0,0,1,.66-1,9.82,9.82,0,0,0,2.2-2.76,5.45,5.45,0,0,1,.64-1,11.69,11.69,0,0,1,.81-.91l.44-.42a45.58,45.58,0,0,0,3.63-4.11,4.08,4.08,0,0,1,.88-.88,2,2,0,0,1,1.22-.09,2.56,2.56,0,0,1,1.2,1.37c0,.21.05.42.07.63s-.11.4-.16.6a6.5,6.5,0,0,1-.68,1.05l-.41.48a12.33,12.33,0,0,1-.86.91,20.87,20.87,0,0,0-2.85,3.24,8.66,8.66,0,0,1-.68,1,10.69,10.69,0,0,1-.75.89l-.38.42a20.15,20.15,0,0,1-1.9,1.91c-.37.34-.72.69-1.07,1a2.24,2.24,0,0,0-.69,1.16l-.39.2.43-.07a1.91,1.91,0,0,1,.59-1.23c.38-.35.73-.72,1.12-1.08l1-.58c2.54-1.05,2.51-5.84,6.64-4.56.69,1.84-.61,3-1.55,4.22a157.5,157.5,0,0,0-10.51,15.84,17.22,17.22,0,0,0-3,6.06c-2.11,5.45-4.1,10.94-5.81,16.53C602.19,364.73,601.91,366.69,600.26,367.94Z" transform="translate(-15.5 -98.22)"/><path class="cls-41" d="M600.4,345.9c-.27,3.08-1.58,5.87-2.69,8.66-2.73,6.9-3.87,14.15-5.06,21.39-1.38,8.41-1.13,16.89-1.13,25.36q0,63.3,0,126.62c0,2.18.54,4.56-1.57,6.23-.79-4.45-1.51-8.92-2.39-13.35-.29-1.5-.48-3.11-1.58-4.35-.12-1.74-1.44-2.72-2.56-3.75-1.36-1.25-2.89-2.32-4.35-3.47-.48-.41-.46-.79.07-1.14,3,1.1,5.05,3.35,7,5.69s2.15,5.12,3.6,7.66v-4.66q0-59.88,0-119.76a122.21,122.21,0,0,1,1.9-22.76c1.45-7.82,3-15.59,5.8-23.07C598.11,349.28,598.67,347.26,600.4,345.9Z" transform="translate(-15.5 -98.22)"/><path class="cls-56" d="M591.66,581a2.53,2.53,0,0,1,.93,2.1v5.39a9.59,9.59,0,0,0,2.94-6.51c.28-.43.57-.44.85,0,0,2.86.07,5.72.06,8.58a7.07,7.07,0,0,1-.3,2.34,2.07,2.07,0,0,1-2.28,1.33,1.78,1.78,0,0,1-1.8-1.3c-.29-1.87-.37-3.78-.49-5.67-.1-1.56.39-3.21-.83-4.56A1.71,1.71,0,0,1,591.66,581Z" transform="translate(-15.5 -98.22)"/><path class="cls-57" d="M585.76,590.38l1.44-2.7a.55.55,0,0,0,.5,0c.7-.38.49-1.34,1.1-1.78l0-.06a7,7,0,0,0,.8-1.06v0a.64.64,0,0,1,1,.21l0,8.49c-1.39,1.59-3.35.69-5,1.15a7.42,7.42,0,0,0-1.79.76c-.27,0-.53,0-.8-.08,0-.57,0-1.15,0-1.72C583.48,592.12,585,591.58,585.76,590.38Z" transform="translate(-15.5 -98.22)"/><path class="cls-44" d="M588.8,585.93c0,.81-.22,1.51-1.1,1.78A1.86,1.86,0,0,1,588.8,585.93Z" transform="translate(-15.5 -98.22)"/><path class="cls-56" d="M592.52,578.2a1.74,1.74,0,0,1-.71,1.8A1.64,1.64,0,0,1,592.52,578.2Z" transform="translate(-15.5 -98.22)"/><path class="cls-44" d="M589.64,584.81a1.15,1.15,0,0,1-.8,1.06A1.05,1.05,0,0,1,589.64,584.81Z" transform="translate(-15.5 -98.22)"/><path class="cls-58" d="M551.37,580.06l-1-.88A1.23,1.23,0,0,1,551.37,580.06Z" transform="translate(-15.5 -98.22)"/><path class="cls-58" d="M554.16,582l-.86-.75A.92.92,0,0,1,554.16,582Z" transform="translate(-15.5 -98.22)"/><path class="cls-58" d="M555.3,582.9a1.27,1.27,0,0,1-1.07-.84Z" transform="translate(-15.5 -98.22)"/><path class="cls-44" d="M590.59,585l-1-.21a.8.8,0,0,1,.27-.8Z" transform="translate(-15.5 -98.22)"/><path class="cls-16" d="M600.26,367.94a96.33,96.33,0,0,1,7.55-22.14c1.19-1.82,1.73-4,3-5.76,2.75-6.3,6.88-11.72,11-17.13.67-.87,1.56-1.6,1.71-2.79,0-.22,0-.44,0-.66a4.32,4.32,0,0,1,.6-1.17c.13-.18.28-.35.41-.52,2.76-2.85,5.53-5.69,8.41-8.43a11.17,11.17,0,0,1,1.09-.83c2.34-1.2,3.68-3.72,6.22-4.68a4.48,4.48,0,0,1,1.63-.11,4,4,0,0,1,1.62.69c1.59,1.69,1.43,3.82,1.44,5.88q0,81.65,0,163.28c0,2.07.17,4.19-1.42,5.87-3.09,1.55-4.67-.92-6.52-2.54-4.19-3.68-9.16-4.17-13.57-1.26a11.35,11.35,0,0,0-4.47,12.59c2.17,7.12,10.71,9.92,17.15,5.6,1.93-1.3,3.5-3.5,6.34-2.36,2.19,1.63,2.48,4,2.48,6.43q.06,45.06,0,90.11c0,5-1.11,6-5.87,6q-18.69,0-37.38,0c-1.09,0-2.25.24-3.25-.46a7.18,7.18,0,0,1-.84-3.69c.15-3.66-.38-7.34.6-11a10.94,10.94,0,0,0,.14-2.87c0-5.27.34-10.56-.06-15.8-1.4-17.86-.46-35.73-.64-53.6s0-35.77,0-53.66V399.29c1.18-8.83.24-17.85,2.49-26.59A22.76,22.76,0,0,0,600.26,367.94Z" transform="translate(-15.5 -98.22)"/><path class="cls-16" d="M785.62,363.11a10.45,10.45,0,0,0,.3,3.77c1.17,5.74,2.58,11.45,2.53,17.37.8,1.51.42,3.14.42,4.71q0,99.8,0,199.58c0,5.45,0,5.51-5.36,5.45-13.1-.14-26.21.37-39.3-.27-1.83-2-1.29-4.53-1.29-6.87q-.06-47.72,0-95.44c0-8.24.35-8.57,8.66-8.66,5.33.71,10.73.9,16.1,1.34,3.21.27,4.62-.87,5.05-4.06,1-7.28,2-14.5-2.65-21a15.4,15.4,0,0,1-10-6.74c-3.79-5.33-8.16-10.23-12.18-15.41a14.05,14.05,0,0,1-.83-1.15c-1.15-2.18-4-2.89-4.75-5.44a7.79,7.79,0,0,1-.28-1.66c-.13-39,0-78,0-117a19.86,19.86,0,0,1,.54-5.7c1-2.89,2.79-1.69,4.5-.84,2.7,1.34,4.35,4.12,7.19,5.26,8.58,6.19,14.7,14.55,20.13,23.41a125.57,125.57,0,0,1,11,23.88C785.91,359.34,786.85,361.21,785.62,363.11Z" transform="translate(-15.5 -98.22)"/><path class="cls-59" d="M785.62,363.11A110.36,110.36,0,0,0,762.83,320a76.19,76.19,0,0,0-8.77-8.74c-3.25-1.85-5.36-5.11-8.67-6.88a5.69,5.69,0,0,0-1.76-.83,11.25,11.25,0,0,1-1.22-.57c-.63-.32-1.24-.65-1.86-1-27.7-16.73-56.16-19.26-85.54-4.59-.82.42-1.68.79-2.51,1.18-2.32,1-4.6,2.14-6.82,3.36-.31.22-.64.42-1,.62a8.78,8.78,0,0,1-2.38,1.19l-.91.39a1.77,1.77,0,0,0-.81.53l-.33.12-.36,0c-2.53.94-3.92,3.31-6,4.84l.07-.05a37.67,37.67,0,0,0-9.63,9.63l0-.07a1.75,1.75,0,0,0-1,1.07h.1c-1.92.57-3,2.1-4,3.63a16.36,16.36,0,0,1-1.74,2.15c-.36.37-.83.25-1.16-.18-.59-1.27.54-2,1-2.88q.5-.46,1-1a21.88,21.88,0,0,1,3.09-3.56,11.3,11.3,0,0,0,1.12-1.27,4.72,4.72,0,0,1,.59-.93q.49-.47,1-1c.36-.44.64-1,1-1.36l.78-.84.42-.4a8.88,8.88,0,0,1,2.16-1.89,10.17,10.17,0,0,0,1.28-1.18l1.24-1.24a9.44,9.44,0,0,1,1.35-1.18c1.57-1,2.67-2.55,4.29-3.47,1.8-1,3-2.81,4.81-3.85a12.76,12.76,0,0,1,3.17-1.69s-.19-.16-.22-.14c-1,.7-2.17,1.14-3.1,1.92-1.79,1-3,2.79-4.78,3.83-1.63.87-2.66,2.46-4.22,3.41a9.19,9.19,0,0,0-1.31,1.18l-1.24,1.24a11.07,11.07,0,0,1-1.29,1.18,7.78,7.78,0,0,0-1.81,1.42c-.27.26-.55.52-.83.76s-.26.27-.38.41a5.85,5.85,0,0,1-.83.74l-.52.19-1-1-.4-.36v-.54a3.41,3.41,0,0,1,.52-.93l.34-.39q.35-.37.72-.72l.36-.34c.23-.24.47-.46.71-.68l.34-.33c.21-.24.45-.45.68-.67,0,0,.34-.32.33-.33.22-.23.44-.45.67-.66,0,0,.35-.33.34-.33a8.84,8.84,0,0,1,.68-.69l.34-.35c.23-.25.47-.49.71-.73l.39-.36a5.38,5.38,0,0,1,.92-.56c.35-.11.7-.24,1-.38a6.15,6.15,0,0,0,1.8-1.36l-.07,0c2-.86,3.26-2.57,4.86-3.89l-.06,0a8.93,8.93,0,0,0,3-1.92l-.06.05A102.5,102.5,0,0,1,674.73,283c16.91-3.63,33.48-2,49.79,3.36a21.38,21.38,0,0,1,2.72.84,7,7,0,0,1,1.87.31,142.76,142.76,0,0,1,15.26,8,106.4,106.4,0,0,1,16.12,12.74A95.35,95.35,0,0,1,774.67,325c2.27,3.45,4.56,6.89,6.84,10.33a108.5,108.5,0,0,1,11.74,30.87c.21.89.77,1.8,0,2.69a24.29,24.29,0,0,0,.1,3.82c1.6,9,1.86,18.07,1.85,27.18q-.09,94,0,188.08c0,1.43,0,2.88-.11,4.31a2.28,2.28,0,0,1-2.34,2,2.2,2.2,0,0,1-2.2-2.1c-.1-1.43-.07-2.87-.07-4.31q0-94.51,0-189c0-3.68.1-7.37-.11-11a126.35,126.35,0,0,0-3.77-23.1A6.53,6.53,0,0,0,785.62,363.11Z" transform="translate(-15.5 -98.22)"/><path class="cls-60" d="M744.33,593.51h40.32c3.6-.08,3.7-.18,3.78-3.85,0-1.28,0-2.56,0-3.84q0-99.83,0-199.65c0-.64,0-1.28,0-1.92a3.24,3.24,0,0,1,.88,2.63c0,2.56.08,5.12.08,7.67V588.29c0,1.44,0,2.88-.09,4.31a1.8,1.8,0,0,1-1.85,1.82c-1.11.08-2.23.07-3.35.07q-90.39,0-180.79,0c-1.67,0-3.55.67-5-.93l38.33,0c1.27,0,2.56,0,3.83,0,2-.15,2.75-1,2.89-3.07.08-1.12,0-2.24,0-3.36V498.89a23.1,23.1,0,0,0-.11-3.82c-.28-1.6-.87-3.13-2.86-3.35a1.25,1.25,0,0,1,0-1.24,2.21,2.21,0,0,1,1.76-.85c2.13,1.42,4.7,2.4,5.34,5.33.61,7.2.26,14.4.28,21.59,0,22.71,0,45.43,0,68.14,0,6.92.41,7.28,7.36,7.31,11.67,0,23.35,0,35,0a22.94,22.94,0,0,0,4.05-.23,10.65,10.65,0,0,1,1.59.13c.81.08,1.62.14,2.43.15,11.49-.07,23,0,34.45-.06,2.05,0,4.18.34,6-1,1.82-1.87,1.21-4.22,1.21-6.39q.06-47.16,0-94.32c0-2.36-.45-4.82,1-7a1.79,1.79,0,0,1,2.55-.06c.5,6.2.19,12.41.2,18.61q.06,43.26,0,86.52C743.81,590.09,743.28,591.9,744.33,593.51Z" transform="translate(-15.5 -98.22)"/><path class="cls-2" d="M796.1,381.39a2.55,2.55,0,0,1,.95,2.1c0,1.43,0,2.87,0,4.31q0,102.85,0,205.72a2.58,2.58,0,0,1-.89-2.12c0-1.44,0-2.88,0-4.32q0-84.87,0-169.73C796.18,405.36,796.13,393.38,796.1,381.39Z" transform="translate(-15.5 -98.22)"/><path class="cls-2" d="M836.42,592.58c.31.58.61,1.17.91,1.75l-37.68.12a2.83,2.83,0,0,1-2.57-.92,23.29,23.29,0,0,1,7.48-1C815.18,592.61,825.8,592.58,836.42,592.58Z" transform="translate(-15.5 -98.22)"/><path class="cls-2" d="M793.24,368.92a120,120,0,0,0-8.37-25.75c-.67-1.44-1.31-2.89-2.08-4.27a8,8,0,0,1-1.28-3.54,6.71,6.71,0,0,1,2.9,3.6c2.38,5.64,5.17,11.12,6.84,17a6.55,6.55,0,0,1,.12,1.41,11.5,11.5,0,0,0,.9.95c0,2.4,1,4.57,1.54,6.86a16.85,16.85,0,0,1,.36,3.73l-.47,0Z" transform="translate(-15.5 -98.22)"/><path class="cls-4" d="M583.85,595.4l1.06-.92a8.06,8.06,0,0,1,5.78,0,2.45,2.45,0,0,1-2.08.94C587,595.44,585.44,595.42,583.85,595.4Z" transform="translate(-15.5 -98.22)"/><path class="cls-44" d="M590.69,594.5l-5.78,0a2.8,2.8,0,0,1,2.49-.93l3.24-.06C590.66,593.82,590.67,594.16,590.69,594.5Z" transform="translate(-15.5 -98.22)"/><path class="cls-2" d="M795.15,374.67a2.41,2.41,0,0,1,.94,2.05c0,1.25,0,2.51,0,3.76C794.59,378.74,795.36,376.63,795.15,374.67Z" transform="translate(-15.5 -98.22)"/><path class="cls-55" d="M596.38,582h-.85c.16-1.62-.57-3.4.87-4.79C596.39,578.82,596.39,580.42,596.38,582Z" transform="translate(-15.5 -98.22)"/><path class="cls-2" d="M794.22,369.89c1.37,1,.81,2.54.9,3.88C793.92,372.68,794.3,371.23,794.22,369.89Z" transform="translate(-15.5 -98.22)"/><path class="cls-61" d="M727.24,287.22c-2.47.28-4.71-.76-7-1.4a84,84,0,0,0-17.75-3.46c-3.46-.21-6.92-.9-10.44-.8a14.57,14.57,0,0,0-4.73.55,7.94,7.94,0,0,1-2.83.38c-6-.2-11.66,1.47-17.3,3.13a85.23,85.23,0,0,0-17.66,7.32c-1.39.78-2.75,1.61-4.13,2.42-1.23.72-2.42,1.57-4,1.49,1.09-1.69,2.87-2.53,4.51-3.45,14.72-8.24,30.37-12.93,47.4-13,10.51,0,20.57,2,30.51,5.09A7,7,0,0,1,727.24,287.22Z" transform="translate(-15.5 -98.22)"/><path class="cls-2" d="M618.51,315.15c3-4,6.9-7.2,10.39-10.76a3,3,0,0,1,2.16-.73c.3.23.39.45.27.64s-.23.29-.34.29h0a11.36,11.36,0,0,1-1,.94l0,0a4.27,4.27,0,0,1-1,1l0,0a5.16,5.16,0,0,1-1,1l0,0a4.12,4.12,0,0,1-1,1l0-.05a2.77,2.77,0,0,1-1,1l.06-.06a2.42,2.42,0,0,1-1,1l.06-.06a2.34,2.34,0,0,1-1,1l.06-.06a2.59,2.59,0,0,1-1,1l.06,0a2.41,2.41,0,0,1-.94,1v0a7.6,7.6,0,0,1-3.21,3.24l-.67-.12A.8.8,0,0,1,618.51,315.15Z" transform="translate(-15.5 -98.22)"/><path class="cls-41" d="M607.12,332.48A87.19,87.19,0,0,1,600.36,346a6.76,6.76,0,0,1,.19-2.32c1.62-3.41,3.32-6.77,5.08-10.11C605.88,333.06,606.61,332.83,607.12,332.48Z" transform="translate(-15.5 -98.22)"/><path class="cls-2" d="M543.56,489.84,535,485.07c0-.61,0-1.22-.08-1.83l.33-.32c2.75.14,4.41,2.41,6.7,3.43.85.63,2,1.07,1.8,2.44C543.69,489.14,543.63,489.49,543.56,489.84Z" transform="translate(-15.5 -98.22)"/><path class="cls-61" d="M638.61,298.68c-1,2.05-2.29,3.78-4.86,3.9C635,300.83,636.36,299.2,638.61,298.68Z" transform="translate(-15.5 -98.22)"/><path class="cls-41" d="M614.62,320.87c.16-1.88,1.44-2.93,2.89-3.85l.44.4a1.29,1.29,0,0,1-.52,1.53l.08-.06a3.78,3.78,0,0,1-.94,1.05v0a2.56,2.56,0,0,1-1.39,1.24Z" transform="translate(-15.5 -98.22)"/><path class="cls-41" d="M607.93,330.5a3.17,3.17,0,0,1,1.91-2.92c.15.18.3.35.46.52a2.4,2.4,0,0,1-1.72,2.65Z" transform="translate(-15.5 -98.22)"/><path class="cls-61" d="M641.52,296.8a2.54,2.54,0,0,1-3,1.92A3.59,3.59,0,0,1,641.52,296.8Z" transform="translate(-15.5 -98.22)"/><path class="cls-61" d="M631,304.59c0-.31,0-.62.07-.93l2.76-1.13A2.65,2.65,0,0,1,631,304.59Z" transform="translate(-15.5 -98.22)"/><path class="cls-41" d="M611.77,324.73a3.1,3.1,0,0,1,1.94-2.89l.41.4a1.34,1.34,0,0,1-.5,1.52l0-.06a2.25,2.25,0,0,1-1.31,1.29Z" transform="translate(-15.5 -98.22)"/><path class="cls-41" d="M609.84,327.58a3.12,3.12,0,0,1,1.93-2.85l.22.18a1.21,1.21,0,0,1-.26,1.74l0,0c-.42.6-.68,1.42-1.69,1.18Z" transform="translate(-15.5 -98.22)"/><path class="cls-41" d="M532.06,473.56l0,2.84C530.93,475.44,530.94,474.5,532.06,473.56Z" transform="translate(-15.5 -98.22)"/><path class="cls-41" d="M608,332.44a6.57,6.57,0,0,1-.89.12,2,2,0,0,1,.85-2.06l.24.18A1.34,1.34,0,0,1,608,332.44Z" transform="translate(-15.5 -98.22)"/><path class="cls-41" d="M570.52,507.06l-.94-.88Z" transform="translate(-15.5 -98.22)"/><path class="cls-41" d="M569.62,504.27l.91-1Z" transform="translate(-15.5 -98.22)"/><path class="cls-41" d="M571.58,499.46l.87-1Z" transform="translate(-15.5 -98.22)"/><path class="cls-41" d="M543.65,468.69l-1-.9Z" transform="translate(-15.5 -98.22)"/><path class="cls-41" d="M572.54,496.58l.87-1Z" transform="translate(-15.5 -98.22)"/><path class="cls-41" d="M574.48,488.9l.84-1Z" transform="translate(-15.5 -98.22)"/><path class="cls-39" d="M792.27,358.36l-.9-.95Z" transform="translate(-15.5 -98.22)"/><path class="cls-41" d="M575.32,484.11l-.86-1Z" transform="translate(-15.5 -98.22)"/><path class="cls-41" d="M613.71,321.84c.3-.33.6-.65.91-1l.14.12c.22.74-.12,1.05-.83,1.06Z" transform="translate(-15.5 -98.22)"/><path class="cls-2" d="M532.13,479.31l.88,1Z" transform="translate(-15.5 -98.22)"/><path class="cls-2" d="M617.51,317q0-.45.06-.9a.62.62,0,0,1,.88-.08l.15.15c.2.76-.13,1.07-.87,1Z" transform="translate(-15.5 -98.22)"/><path class="cls-41" d="M573.41,478.34l-.91-1Z" transform="translate(-15.5 -98.22)"/><path class="cls-41" d="M618.45,316a6.54,6.54,0,0,1-.88.08l.94-1A6.54,6.54,0,0,1,618.45,316Z" transform="translate(-15.5 -98.22)"/><path class="cls-41" d="M566.69,471.58l-1-.91Z" transform="translate(-15.5 -98.22)"/><path class="cls-2" d="M833.06,488c-1.54,0-2.74-.46-3.33-2C833.06,487,834.6,488,833.06,488Z" transform="translate(-15.5 -98.22)"/><path class="cls-2" d="M825.9,481.18" transform="translate(-15.5 -98.22)"/><path class="cls-2" d="M839.28,484a2.75,2.75,0,0,1-2.89,2A3.25,3.25,0,0,1,839.28,484Z" transform="translate(-15.5 -98.22)"/><path class="cls-2" d="M840.23,483.09l-1,1Z" transform="translate(-15.5 -98.22)"/><path class="cls-62" d="M514.82,583a10,10,0,0,0,5.64-6.68,8.55,8.55,0,0,1,2.46-3.91,1.59,1.59,0,0,1,.49,2.08c-1.12,3.4-.85,6.9-.88,10.38,0,.95,0,1.9,0,2.86,0,4.39.24,5.07-4.6,4.91a9.42,9.42,0,0,0-3.27.5c-1.29.42-1.59-.6-1.83-1.56v.05c1.75-2.62.81-5.86,2-8.62Z" transform="translate(-15.5 -98.22)"/><path class="cls-44" d="M585.76,590.38c-.27,1.59-1.49,2.39-2.67,3.22l-.08-.06c-.25-.21-.33-.43-.25-.64s.17-.31.25-.31c.09-.29.17-.59.24-.88Z" transform="translate(-15.5 -98.22)"/><path class="cls-4" d="M583,592.59c0,.31,0,.63,0,.95l-1,0A1.08,1.08,0,0,1,583,592.59Z" transform="translate(-15.5 -98.22)"/><path class="cls-61" d="M617.73,317.22l.87-1,3.73-3c-.47,2.9-2.63,4.38-4.9,5.76Z" transform="translate(-15.5 -98.22)"/><path class="cls-61" d="M608,332.44c.07-.59.13-1.18.2-1.76a4.77,4.77,0,0,0,1.9-2.89l1.69-1.18A7.2,7.2,0,0,1,608,332.44Z" transform="translate(-15.5 -98.22)"/><path class="cls-63" d="M610.78,340a8.41,8.41,0,0,1-3,5.76A7.59,7.59,0,0,1,610.78,340Z" transform="translate(-15.5 -98.22)"/><path class="cls-61" d="M622.36,318a10,10,0,0,1-3.84,3.84c.27-2.41,2-3.63,3.84-4.8l.4.48Z" transform="translate(-15.5 -98.22)"/><path class="cls-61" d="M613.93,322.05l.83-1.06,1.82-1.07c0,2-1.29,3.09-3,3.84C613.72,323.19,613.82,322.62,613.93,322.05Z" transform="translate(-15.5 -98.22)"/><path class="cls-61" d="M610.64,334.45a7.24,7.24,0,0,1-.67,1.08c-.28.31-.75.2-.74-.17a2.2,2.2,0,0,1,.57-1.2C610.05,333.84,610.38,334,610.64,334.45Z" transform="translate(-15.5 -98.22)"/><path class="cls-61" d="M617.56,322.84a6.48,6.48,0,0,1-1,2.88h-1A2.9,2.9,0,0,1,617.56,322.84Z" transform="translate(-15.5 -98.22)"/><path class="cls-61" d="M611.73,326.65c.09-.58.17-1.16.26-1.74l1.67-1.21A2.68,2.68,0,0,1,611.73,326.65Z" transform="translate(-15.5 -98.22)"/><path class="cls-61" d="M614.68,326.68a2,2,0,0,1-1,1.92A2,2,0,0,1,614.68,326.68Z" transform="translate(-15.5 -98.22)"/><polygon class="cls-61" points="598.22 230.38 598.01 230.78 597.83 230.6 598.22 230.38"/><path class="cls-61" d="M622.33,313.22a1.07,1.07,0,0,1,.94-1c0,.34,0,.68.05,1Z" transform="translate(-15.5 -98.22)"/><path class="cls-61" d="M614.68,326.68l1-1Z" transform="translate(-15.5 -98.22)"/><path class="cls-61" d="M618.52,321.88l-1,1Z" transform="translate(-15.5 -98.22)"/><path class="cls-61" d="M616.57,319.94a1.26,1.26,0,0,1,.94-1.05Z" transform="translate(-15.5 -98.22)"/><path class="cls-61" d="M623.32,316.12v1a.64.64,0,0,1-1,0Z" transform="translate(-15.5 -98.22)"/><path class="cls-61" d="M624.28,315.16l-1,1Z" transform="translate(-15.5 -98.22)"/><path class="cls-61" d="M625.24,314.2l-1,1v-1l.48-.37Z" transform="translate(-15.5 -98.22)"/><path class="cls-64" d="M644.52,301.83c2.29-1.79,4.64-3.47,7.56-4.09a1.82,1.82,0,0,1-.45,2.19c-4.24,2.94-3.79,7.26-3.79,11.61q.09,78.06,0,156.11c0,1.75.07,3.51,0,5.26-.12,3.4,1.37,4.95,4.84,4.91s7.16,0,9.06,3.87a1.77,1.77,0,0,1-.2,1.65c-1.86.77-3.23-.53-4.77-1.13-3.54-1.24-7.2-.29-10.78-.66-1.75-.18-3.95.42-4.56-2.19,1-.22,1.86-.58,1.92-1.77.05-1,.07-1.91.07-2.87V309.36a28.6,28.6,0,0,0-.11-3.34c-.11-.93-.89-1.24-1.72-1.38-.27-.2-.36-.41-.27-.62s.17-.31.26-.31h0c.44-.64,1.39-.41,1.81-1.08h0C643.83,302.4,644.08,302,644.52,301.83Z" transform="translate(-15.5 -98.22)"/><path class="cls-65" d="M641.48,479.36a2.79,2.79,0,0,0,2.56.88c3.47,0,6.94,0,10.41.05,1.24,0,2.55-.2,3.56.83-3.19,2.59-7,1.6-10.47,1.39-7.11-.45-14.16.24-21.23.34-1.17-2.29-.93-2.85,1.51-3.52,2.15-.59,4.45.18,7.22-.93a8.49,8.49,0,0,0-9.94-.8c-3.33,1.75-4.53,4.84-4.14,8.45.36,3.34,3.95,6.71,7.41,7.22a8.6,8.6,0,0,0,4.24-.37c.35-.18.72-.34,1.06-.51.15-.11.32-.2.47-.31a6.38,6.38,0,0,0,.73-.74c0-.16.11-.32.15-.47-2.7-2.17-6.61.74-9.09-2.21a1.46,1.46,0,0,1,.58-1.22c4.93-1,9.92-2.3,14.1,2a1.14,1.14,0,0,1,.11,1.38,2.48,2.48,0,0,0-.22.89c-1.06.95-2.06,2-3.2,2.83-4,3-8.3,3.79-13,1.55s-7.3-6-7.25-10.92c.09-9.29,8.18-14.78,16.77-12.13a8.85,8.85,0,0,1,3.54,2.34C638.74,476.72,640.12,478,641.48,479.36Z" transform="translate(-15.5 -98.22)"/><path class="cls-65" d="M638.48,453.46c-.1,4.84-4.49,8.75-9.58,8.54-4.5-.19-8.65-4.77-8.41-9.3.19-3.67,5.24-8.56,9-8.68C633.73,443.88,638.58,448.94,638.48,453.46Z" transform="translate(-15.5 -98.22)"/><path class="cls-61" d="M624.39,319.13a2.7,2.7,0,0,1,.64-2.22q3.36-3.41,6.76-6.76a2.73,2.73,0,0,1,2.23-.65A90.27,90.27,0,0,1,624.39,319.13Z" transform="translate(-15.5 -98.22)"/><path class="cls-61" d="M634,309.55c.71-1.95,2.4-3.05,3.83-4.36a2.71,2.71,0,0,1,2.15-.48C638.08,306.49,636.57,308.71,634,309.55Z" transform="translate(-15.5 -98.22)"/><path class="cls-66" d="M641.63,303.71c0,.31,0,.62,0,.93h-1A1.13,1.13,0,0,1,641.63,303.71Z" transform="translate(-15.5 -98.22)"/><path class="cls-55" d="M623.41,320.13a1.33,1.33,0,0,1,1-1.07A1.19,1.19,0,0,1,623.41,320.13Z" transform="translate(-15.5 -98.22)"/><path class="cls-67" d="M653.89,296.83c4.29-3.24,9.34-4.78,14.34-6.36a86.64,86.64,0,0,1,19.71-3.8,78.46,78.46,0,0,1,24.24,2.05A92.81,92.81,0,0,1,734.6,297a63.73,63.73,0,0,1,7.71,4.81,6.56,6.56,0,0,0,1.08.8h0c.39.73,1.36.47,1.83,1.07a38.1,38.1,0,0,1,8.84,7.57c-1.84.27-2.79-1.09-3.88-2.15-2-1.94-4-3.78-6.86-4.47-1.14,1.89-1,4-1,6.07q0,57.07,0,114.15c0,1.88-.42,3.87,1,5.53,0,.31,0,.63,0,.94-.49,1.46-1.37,2.34-3,2a3.85,3.85,0,0,1-.88-1.43,27.22,27.22,0,0,1-.44-7.15c0-38.63-.1-77.26.09-115.9,0-4.63-1.48-7.47-5.58-9.46-9.7-4.71-19.76-8.17-30.51-9.4-5.28-.6-6.14.18-6.18,5.62-.06,9.58.18,19.16-.11,28.73-.13,4.43.49,8.11,4.56,10.52-.7,1.62-2.22,1.55-3.61,1.75a46.26,46.26,0,0,0-21.1,4.22c-1.4.65-2.9,1.41-4.43.18,0-2.39,1.91-3.13,3.54-4a29.91,29.91,0,0,1,10.83-3.59c3.3-.43,4.66-1.82,4.62-5.25-.12-11.47-.2-22.95,0-34.42.07-3.75-1.76-4.3-4.73-4a90.45,90.45,0,0,0-26.32,6.64C658.13,297.22,656.11,298.71,653.89,296.83Z" transform="translate(-15.5 -98.22)"/><path class="cls-68" d="M743.31,483.15h-1.92a6.88,6.88,0,0,1-1.43.9,91.77,91.77,0,0,1-17.53-1.32c-4.68-.93-9.84-7.19-10.21-11.93-.38-5,.54-9.86,1.29-14.72s4.86-6.33,10.38-4.09a1.32,1.32,0,0,1,.36,1.47,3.9,3.9,0,0,1-2.57,1.14c-4,.27-5,2.78-4.86,6.27a28.24,28.24,0,0,1-.5,7.16c-.86,3.79.6,5.72,4.49,6.19,9.84,1.19,19.73,1.78,29.59,2.7,4.6.43,9.19,1.13,13.85,1.19,3,0,4.42-1.16,4.89-4a55.08,55.08,0,0,0,.43-15.28,2.48,2.48,0,0,1,.46-1.49,4,4,0,0,1,3,3.83,4.87,4.87,0,0,0,.42,2.31c2.64,3.81,1.47,8,1.19,12.06-.13,1.85-.59,3.73-.67,5.65-.15,3.8-2,5.28-5.5,4.4a15.5,15.5,0,0,0-3.76-.53c-4,0-8,.17-11.84-1C749.81,482.74,746.41,484.47,743.31,483.15Z" transform="translate(-15.5 -98.22)"/><path class="cls-64" d="M743.32,430.35c-.82-.14-1.66-.43-1.78-1.32a28.64,28.64,0,0,1-.14-3.82q0-57.73,0-115.47a28.58,28.58,0,0,1,.14-3.82c.12-.89,1-1.19,1.78-1.32.15.46.49.95.4,1.36-.68,3.32-.37,6.67-.38,10Q743.31,373.15,743.32,430.35Z" transform="translate(-15.5 -98.22)"/><path class="cls-69" d="M743.31,483.15h7.07a2.85,2.85,0,0,1,2.53,1c-2.23,0-4.46,0-6.69.08a1.79,1.79,0,0,0-1.88,1.77c-.07.79-.07,1.59-.07,2.38q0,52.11,0,104.22c0,.32,0,.64,0,1a2.37,2.37,0,0,1-1-2c0-1.28,0-2.56,0-3.83Z" transform="translate(-15.5 -98.22)"/><path class="cls-70" d="M770,457.35a5.68,5.68,0,0,1,.05.92c-5.84.21-11.77,1.56-17.35-1.39.81-3.11,4.35-.46,5.56-2.66a125.54,125.54,0,0,0-11.95-14.82c-.81-1.61.14-2.53,1.34-3.34l.66-.14q4.56,5.49,9.1,11a52.53,52.53,0,0,1,4.7,6A8.68,8.68,0,0,0,770,457.35Z" transform="translate(-15.5 -98.22)"/><path class="cls-64" d="M741.34,433.18a3.67,3.67,0,0,1,2-1.89c1.86.93,3.81,1.76,4.8,3.8a1.69,1.69,0,0,1-1.08.6,34.7,34.7,0,0,1-5.31-2Z" transform="translate(-15.5 -98.22)"/><path class="cls-70" d="M747.14,435.16l1-.07c.06.28.13.56.2.83l-.43.31C747.23,436.18,746.85,435.92,747.14,435.16Z" transform="translate(-15.5 -98.22)"/><path class="cls-16" d="M653.89,296.83a5.59,5.59,0,0,0,3.68-.71,69.07,69.07,0,0,1,14.28-5.24,50.49,50.49,0,0,1,5.55-1.24c5-.75,9.92-2.11,15-1.06v40.64c0,.79,0,1.59,0,2.39-.11,2.13-.46,2.59-2.48,2.69A35.89,35.89,0,0,0,674.58,339c-1,.54-2,1.07-2.21,2.31a2.76,2.76,0,0,1-1.36,2.81c-4.93,3.62-8.08,8.73-11.56,13.58-5.81,9.47-5.6,19.57-1.78,29.35,2.73,7,4.58,14.53,10.66,20,5.48,4.93,11.35,8.59,18.65,10,2.36.44,5.28.14,6.5,3.15a21.61,21.61,0,0,1,.38,6.21q0,79.68,0,159.35c0,2.7.39,5.49-1.49,7.83H652.64c-1.12,0-2.24,0-3.35,0-2-.16-2.75-1-2.89-3.08-.08-1.11,0-2.23,0-3.35q0-47.14,0-94.29c.29-2.6,2.46-2,4-2.22a29.35,29.35,0,0,1,4.3-.09c5.46-.08,5.45-.08,6.16-5.59a3.8,3.8,0,0,1,.84-1.69c-1.53-3.14-4.1-4.19-7.48-3.9a44.15,44.15,0,0,1-5.75,0c-1.45-.07-2-.62-2-2.12s-.06-2.88-.06-4.32V310.08c0-1.12,0-2.25,0-3.36-.06-1.27-.61-2.68-.21-3.76.55-1.51,2.4-2,3.67-2.91.9-.67,2-1.09,2.27-2.31A2.27,2.27,0,0,1,653.89,296.83Z" transform="translate(-15.5 -98.22)"/><path class="cls-61" d="M641.56,299.8c-1.17,1.81-2.39,3.57-4.8,3.84C637.94,301.83,639.15,300.07,641.56,299.8Z" transform="translate(-15.5 -98.22)"/><path class="cls-61" d="M636.76,303.64c-1.17,1.81-2.39,3.57-4.8,3.84C633.13,305.66,634.35,303.91,636.76,303.64Z" transform="translate(-15.5 -98.22)"/><path class="cls-61" d="M641.56,299.8c1-1.93,2.82-2.56,4.8-2.88C645.34,298.85,643.54,299.47,641.56,299.8Z" transform="translate(-15.5 -98.22)"/><path class="cls-61" d="M629.08,310.36a6,6,0,0,1-2.88,2.88c-.26-.22-.35-.43-.26-.64s.17-.32.26-.32A2.91,2.91,0,0,1,629.08,310.36Z" transform="translate(-15.5 -98.22)"/><path class="cls-61" d="M647.37,296.2l.23.36c-.26.11-.52.24-.8.33-.51.17-.61,0-.2-.34A2.71,2.71,0,0,1,647.37,296.2Z" transform="translate(-15.5 -98.22)"/><path class="cls-66" d="M643.43,302.62a1.8,1.8,0,0,1-1.81,1.08A1.7,1.7,0,0,1,643.43,302.62Z" transform="translate(-15.5 -98.22)"/><path class="cls-71" d="M745.22,303.65a1.69,1.69,0,0,1-1.83-1.07A1.78,1.78,0,0,1,745.22,303.65Z" transform="translate(-15.5 -98.22)"/><path class="cls-66" d="M644.52,301.83a1.21,1.21,0,0,1-1.09.79A1.2,1.2,0,0,1,644.52,301.83Z" transform="translate(-15.5 -98.22)"/><path class="cls-71" d="M743.39,302.59a1.15,1.15,0,0,1-1.08-.8A1.14,1.14,0,0,1,743.39,302.59Z" transform="translate(-15.5 -98.22)"/><path class="cls-61" d="M630,305.53a1.25,1.25,0,0,1,1-.94Z" transform="translate(-15.5 -98.22)"/><path class="cls-61" d="M629,306.49a1.26,1.26,0,0,1,1-1Z" transform="translate(-15.5 -98.22)"/><path class="cls-61" d="M628.08,307.46a1.36,1.36,0,0,1,1-1Z" transform="translate(-15.5 -98.22)"/><path class="cls-61" d="M627.07,308.39a1.3,1.3,0,0,1,1-1Z" transform="translate(-15.5 -98.22)"/><path class="cls-61" d="M632,307.48l-1,1Z" transform="translate(-15.5 -98.22)"/><path class="cls-61" d="M626.08,309.34a1.23,1.23,0,0,1,1-1A1.38,1.38,0,0,1,626.08,309.34Z" transform="translate(-15.5 -98.22)"/><path class="cls-61" d="M630,309.4l1-1Z" transform="translate(-15.5 -98.22)"/><path class="cls-61" d="M625.12,310.29a1.21,1.21,0,0,1,1-1A1.31,1.31,0,0,1,625.12,310.29Z" transform="translate(-15.5 -98.22)"/><path class="cls-61" d="M630,309.4l-1,1Z" transform="translate(-15.5 -98.22)"/><path class="cls-61" d="M624.16,311.25a1.24,1.24,0,0,1,1-1A1.33,1.33,0,0,1,624.16,311.25Z" transform="translate(-15.5 -98.22)"/><path class="cls-61" d="M623.21,312.23a1.25,1.25,0,0,1,1-1A1.37,1.37,0,0,1,623.21,312.23Z" transform="translate(-15.5 -98.22)"/><path class="cls-55" d="M626.2,312.28v1a.58.58,0,0,1-1,0Z" transform="translate(-15.5 -98.22)"/><path class="cls-55" d="M622.36,317.08h1l-1,1Z" transform="translate(-15.5 -98.22)"/><path class="cls-61" d="M625.24,313.24h1l-1,1a.62.62,0,0,1-.21-.64c.07-.21.14-.32.21-.32Z" transform="translate(-15.5 -98.22)"/><path class="cls-55" d="M625.24,313.24v1h-1Z" transform="translate(-15.5 -98.22)"/><path class="cls-16" d="M724.18,452.47c-1.26-.16-2.53-.3-3.79-.48-2.84-.42-5.81,1.48-5.77,4.23,0,4.81-1.37,9.46-1.15,14.29.12,2.81.55,5.08,3.55,6,1.13.36,1.23,1.31,1.39,2.28a2.76,2.76,0,0,0,2.59,2.4c3.3.53,6.57,1.23,10,1a14.25,14.25,0,0,1,5.2.58,18.76,18.76,0,0,0,4.27.36c.76,1.17.45,2.48.45,3.73q0,51.47,0,102.92c0,1.24.35,2.57-.52,3.7l-44,0c-.33-.32-.68-.62-1-.95h0c-1.58-1.7-1.43-3.82-1.43-5.9q0-80.61,0-161.23c0-1.92-.09-3.85.85-5.62,1.85-2.7,5-2.37,7.63-3.26.43-.13.87-.24,1.31-.36.8-.22,1.62-.38,2.4-.66.35-.15.72-.27,1.09-.39a9.46,9.46,0,0,0,2.49-1.12c.3-.2.61-.38.93-.55s.94-.48,1.41-.72c.3-.19.61-.35.92-.52a9.73,9.73,0,0,0,1.75-1.24c.27-.28.56-.53.85-.79s.6-.56.91-.82.67-.57,1-.83c9.3-10.75,14.55-23,14.13-37.43a29.71,29.71,0,0,0-5.89-17.29c-3.77-4.83-8.46-8.68-13.24-12.42a10.4,10.4,0,0,0-1.89-1.55c-.38-.19-.74-.39-1.11-.6-2.57-1.76-6-1.73-8.3-4.06-1.14-1.23-2.69-.73-4.07-1a1.85,1.85,0,0,1-1.71-1.93q0-1,0-1.92,0-18.93,0-37.86c0-4.21.08-4.12,4.31-4.3,3.57-.15,7,.75,10.39,1.37A90,90,0,0,1,733.84,298a15.35,15.35,0,0,1,2.91,1.64c1.24,1,2.91,1.43,3.77,2.88s-.36,2.77-.12,4.2a19.69,19.69,0,0,1,0,3.35V427.46c0,1.91,0,3.83-.05,5.75a3.13,3.13,0,0,1-.68,1.61,17.55,17.55,0,0,0-1.85,3.09c-3.43,5-7.6,9.35-11.58,13.87A1.83,1.83,0,0,1,724.18,452.47Z" transform="translate(-15.5 -98.22)"/><path class="cls-72" d="M696.26,418.83a7.59,7.59,0,0,0-1,3.66c.06,1.27,0,2.55,0,3.83V592.58l-3,.92c0-1.12.07-2.24.07-3.36V421.73c0-1,0-1.92,0-2.88a6.6,6.6,0,0,1,2.84-.55A1.69,1.69,0,0,1,696.26,418.83Z" transform="translate(-15.5 -98.22)"/><path class="cls-69" d="M740.36,593.5c0-2.23.07-4.47.07-6.71q0-51.82,0-103.64h1V587.63c0,1.27,0,2.55,0,3.83A2.31,2.31,0,0,1,740.36,593.5Z" transform="translate(-15.5 -98.22)"/><path class="cls-73" d="M661.68,483.16a22.89,22.89,0,0,0,.6,4.18,3.41,3.41,0,0,1-3,4.36,19.08,19.08,0,0,1-2.83.09h-7.55a2.84,2.84,0,0,0-2.52,1c-1,.46-2,.82-2.67-.54a3.76,3.76,0,0,0-2.07-2.26c0-.26-.1-.51-.16-.77,3.15-2.82,7-1.56,10.49-1.5,3.9.05,6.79-1,8.64-4.48Z" transform="translate(-15.5 -98.22)"/><path class="cls-72" d="M695.32,592.57l1,.95Z" transform="translate(-15.5 -98.22)"/><path class="cls-73" d="M640.72,490.83l-.09-.95.35-.33.45.14.2.26Z" transform="translate(-15.5 -98.22)"/><path class="cls-61" d="M641.43,489.69a2.83,2.83,0,0,0-.8.19c-.59.15-1.56.61-1.72.05-.51-1.84-1.77-2-3.3-1.95-3.19.06-6.37,0-9.56.07-3.42-2.06-3.51-2.82-.69-5.81,2.4-1.07,4.94-.94,7.49-1,2-.06,4.17.71,5.93-.92a.94.94,0,0,1,1.29,0c1.39,1.07,3,.94,4.58.93l13.36-.13,2.59,2.08a7.7,7.7,0,0,1,.07,1.43c-.33,2.87-1.46,4.09-4.14,4.25-2.07.12-4.14,0-6.22,0s-4.46.05-6.69.05A2.83,2.83,0,0,0,641.43,489.69Z" transform="translate(-15.5 -98.22)"/><path class="cls-74" d="M625.36,482.24c-1.55,3.09-1.53,3.21.69,5.81a4.19,4.19,0,0,0,.15.86,13.54,13.54,0,0,0,7.11,1.42c1.09-.11,2.62-.54,2.57,1.5h0a2.84,2.84,0,0,0-1,1h0a11.9,11.9,0,0,0-1,.86c-5.87,2-10,.63-13.16-4.3-2.21-3.44-1.6-10.49,4.46-13.3a9.78,9.78,0,0,1,11.1,1.53c.58.48,1.28,1.07.86,2-.32.71-1,.62-1.65.63-2.23,0-4.46,0-6.69,0C627.31,480.27,625.94,480.59,625.36,482.24Z" transform="translate(-15.5 -98.22)"/><path class="cls-75" d="M635.88,491.83c-.39-.25-.9-.79-1.15-.69-3.42,1.4-6.17.38-8.53-2.23l9.4.16c.62,0,1.36-.06,1.63.64.34.88-.29,1.43-.93,1.9A3.36,3.36,0,0,1,635.88,491.83Z" transform="translate(-15.5 -98.22)"/><path class="cls-75" d="M633.88,493.65l1-.86A1.14,1.14,0,0,1,633.88,493.65Z" transform="translate(-15.5 -98.22)"/><path class="cls-75" d="M634.88,492.8a1.31,1.31,0,0,1,1-1Z" transform="translate(-15.5 -98.22)"/><path class="cls-76" d="M635.82,453a6.06,6.06,0,0,1-6.38,6.29c-3.49-.06-5.88-2.53-6.07-6.1s3.48-6.13,6.11-6.27C632.42,446.76,635.8,450.08,635.82,453Z" transform="translate(-15.5 -98.22)"/><path class="cls-77" d="M712.57,340.17a55.35,55.35,0,0,1,13.35,12.47c11.25,15.49,7.59,40.75-9.22,53.48-9.55,5.9-19.69,8.86-31,6.63-27.66-5.45-38-37.66-26.68-56.25,1.65-2.32,2.94-4.84,4.85-7a33.84,33.84,0,0,1,6.47-6.24,14.66,14.66,0,0,0,2-2,20,20,0,0,0,2.2-.85,43.1,43.1,0,0,1,22.56-5,32.2,32.2,0,0,1,13.51,3.84h0C711.18,339.71,712.07,339.56,712.57,340.17Z" transform="translate(-15.5 -98.22)"/><path class="cls-78" d="M710.64,339.22a10.76,10.76,0,0,1-2.3-.44,31.28,31.28,0,0,0-10-2.75c-.42,0-.82-.42-1.23-.65l4-.16C704.56,336,708,336.55,710.64,339.22Z" transform="translate(-15.5 -98.22)"/><path class="cls-64" d="M739.44,434.16c.31-.32.63-.63.95-1l1,0,.19.2a1,1,0,0,1-.32,1.13,2.15,2.15,0,0,1-1.28.07Z" transform="translate(-15.5 -98.22)"/><path class="cls-61" d="M752.94,456.23a2.11,2.11,0,0,0,2,.93c2.6-.37,5.25,1.18,7.83-.24a1.66,1.66,0,0,1,1.31.25c1.86,1.1,3.91,1.05,6,1.1.89.92,1.86,1.81,1.61,3.27-.79,4.72-.26,9.55-1.34,14.24-.14.62-.14,1.27-.33,1.87a3.14,3.14,0,0,1-3.32,2.17c-7.6-.71-15.18-1.48-22.78-2.19-4.43-.41-8.87-.75-13.3-1.13-4-.34-7.92-.64-11.88-1.05-3-.31-4.38-1.72-4-4.72.5-4.43.67-8.88,1-13.32.22-3.13,1.46-4.11,4.64-4.09,1.28,0,2.55.07,3.82.1,2.92-1.32,6,.05,8.91-.4C739.63,454.42,746.74,452.52,752.94,456.23Z" transform="translate(-15.5 -98.22)"/><path class="cls-79" d="M732.76,454.34a20.93,20.93,0,0,1-8.61-.92,7.54,7.54,0,0,1,0-.95c2.12-2.34,4.3-4.64,6.36-7,2.38-2.78,4.65-5.64,7-8.47.59-.6,1.13-1.35,2.17-1a45.88,45.88,0,0,1,5.67,4.13,1.18,1.18,0,0,1-.3,1.2c-.27.17-.6.44-.85.37-7.82-2.26-9.36,4.87-13,8.75C729.09,452.62,733.7,452.42,732.76,454.34Z" transform="translate(-15.5 -98.22)"/><path class="cls-62" d="M745.18,440.76a3.45,3.45,0,0,0,0-.85l.12-.35a1.72,1.72,0,0,1,.53-.51l.36-.09c2.05,0,3,1.54,4.08,2.89,3.2,4.1,6.32,8.26,9.48,12.4.15,1-.42,1.4-1.33,1.49-4.51.46-8.86-1-13.34-1a2.2,2.2,0,0,1-1.62-.91C741.77,451.82,743,442.51,745.18,440.76Z" transform="translate(-15.5 -98.22)"/><path class="cls-80" d="M745.18,440.76c-.3,1-1.43,1.44-1.16,2.9a25.92,25.92,0,0,1,0,8.52,1.62,1.62,0,0,0,1.44,2c.94.11,1.9.11,2.85.13a23.22,23.22,0,0,1,5.16.6c2.08.5,4.37,1.09,6.29-.68a4.89,4.89,0,0,1,.72.55c.44.51.66,1.31-.18,1.36-2.44.15-4.89.06-7.34.07l-20.18-1.89a4.15,4.15,0,0,0-1.18-.74c-4-.9-4-.86-1.2-4.19,2.54-3,5-6.14,7.51-9.19.78-.93,1.72-1.52,2.82-.45C742,441,743.57,441,745.18,440.76Z" transform="translate(-15.5 -98.22)"/><path class="cls-81" d="M745.17,439.91c-3,.31-4.45-1.82-5.89-3.91.09-.17.17-.34.25-.52.52-.56,1.34-.74,1.77-1.41a2.18,2.18,0,0,0,.24-.69c2.27-.67,4,.46,5.6,1.78.26.36.52.71.77,1.07L746.18,439h0a7.58,7.58,0,0,1-1,.91Z" transform="translate(-15.5 -98.22)"/><path class="cls-82" d="M659,356.5c-.31,1.06-.52,2.16-.93,3.19-5.29,13.29-3.44,25.91,4.82,37.17,11,14.94,31.86,20,48.36,10.78,1.66-.93,3.42-1.71,5.13-2.55.84,2.26-1.19,2.53-2.37,3.37-4.19,3-9,4.26-13.81,5.64a47,47,0,0,0,15-6.2c.88-.57,2-1.76,2.85-.52,1,1.54-.91,2-1.66,2.82h0a12.54,12.54,0,0,0-1,1h0c-.93.7-2,1.18-2.88,1.93h0c-.53.54-1.42.36-1.92,1h0c-1.1,1-2.62,1.18-3.85,1.92h0c-.79.83-2.12.05-2.88,1h0c-2.84.8-5.81,1-8.64,1.91a2.75,2.75,0,0,1-2.92,0c-9.45-.4-17.71-3.58-24.34-10.48-2.08-2.18-4.79-3.91-5.84-6.87-2-5.69-4.81-11.06-6.73-16.81-1.31-3.92-1.29-7.8-1.51-11.77a27.56,27.56,0,0,1,2.09-11.66C656.75,359.52,657.25,357.6,659,356.5Z" transform="translate(-15.5 -98.22)"/><path class="cls-83" d="M716.44,410.2c.16-.92,1.35-1.36,1.13-2.81a26.52,26.52,0,0,0-4.37,2.74,16.1,16.1,0,0,1-4.27,2.08c-3.62,1.12-7,2.91-10.88,3.3-.7.07-1.26.05-1.51-.69s.33-1.49,1.25-1.65a2.63,2.63,0,0,1,.47-.06c6.26-.23,11.57-3.07,16.8-6.12a2.82,2.82,0,0,0,1.33-1.9c1.67-1.7,3.39-3.35,5-5.09,8.36-9,11.47-19.61,10-31.67a34,34,0,0,0-3.82-11.76,10.59,10.59,0,0,1-1.65-3.93,3.35,3.35,0,0,1,2,1.86,50.55,50.55,0,0,1,4.44,11,8.43,8.43,0,0,1,.33,2.34c0,5.38.51,10.79-.93,16.09a31,31,0,0,1-1.28,4.56,103.52,103.52,0,0,0-4.8,11.39,12.49,12.49,0,0,1-2.56,4c-1.52,1.82-3.39,3.34-4.61,5.44A2.48,2.48,0,0,1,716.44,410.2Z" transform="translate(-15.5 -98.22)"/><path class="cls-83" d="M695.32,418.83a15.23,15.23,0,0,1,8.64-1.91,14.78,14.78,0,0,1-7.7,1.91Z" transform="translate(-15.5 -98.22)"/><path class="cls-83" d="M706.84,416a5.1,5.1,0,0,1,3.85-1.92C709.94,415.76,708.48,416,706.84,416Z" transform="translate(-15.5 -98.22)"/><path class="cls-83" d="M712.6,413.08a2.87,2.87,0,0,1,2.88-1.93A3,3,0,0,1,712.6,413.08Z" transform="translate(-15.5 -98.22)"/><path class="cls-64" d="M739.28,436l-1.77,1a3.13,3.13,0,0,1,1.93-2.8l.27.26c.27.61.32,1.17-.38,1.54Z" transform="translate(-15.5 -98.22)"/><path class="cls-83" d="M704,416.92c.69-1.14,1.82-.94,2.88-1C706.15,417.07,705,416.89,704,416.92Z" transform="translate(-15.5 -98.22)"/><path class="cls-83" d="M710.68,414a2,2,0,0,1,1.92-1A2,2,0,0,1,710.68,414Z" transform="translate(-15.5 -98.22)"/><path class="cls-78" d="M712.57,340.17a1.8,1.8,0,0,1-1.94-1A1.56,1.56,0,0,1,712.57,340.17Z" transform="translate(-15.5 -98.22)"/><path class="cls-83" d="M715.48,411.16l1-1Z" transform="translate(-15.5 -98.22)"/><path class="cls-84" d="M629.39,451.09c.28.06.64,0,.84.2a2.19,2.19,0,0,1-.15,3.27c-.12.1-.33.24-.42.19a2.48,2.48,0,0,1-1.29-2.29A1.27,1.27,0,0,1,629.39,451.09Z" transform="translate(-15.5 -98.22)"/><path class="cls-85" d="M658.67,374c-.89-19.07,15.88-35.22,34.64-35.25,17.9,0,35.14,14,35.21,34.84a34.59,34.59,0,0,1-34.8,35.28C673.76,409.07,658.16,392.73,658.67,374Z" transform="translate(-15.5 -98.22)"/><path class="cls-79" d="M739.33,436c.13-.51.25-1,.37-1.54l1.6-.35A2.47,2.47,0,0,1,739.33,436Z" transform="translate(-15.5 -98.22)"/><path class="cls-70" d="M745.2,439.88a1.2,1.2,0,0,1,1-.91A1,1,0,0,1,745.2,439.88Z" transform="translate(-15.5 -98.22)"/><path class="cls-85" d="M740.39,442c0,3.05,0,6.18,0,9.31,0,1.38-.68,1.94-2.15,2a9.24,9.24,0,0,1-4.7-.55c-1.07-.54-1.36-1.21-.72-2.29a6.68,6.68,0,0,1,1.1-1.55,37.37,37.37,0,0,0,5.15-6.27C739.3,442.32,739.47,441.78,740.39,442Z" transform="translate(-15.5 -98.22)"/><path class="cls-86" d="M693.12,399.73c-12.14,1.12-26.18-11.13-25.82-26.32.31-12.8,11.27-25.93,26.62-25.79,12.75.11,25.76,10.58,25.86,26.08C719.88,388.32,707.12,400.87,693.12,399.73Z" transform="translate(-15.5 -98.22)"/><path class="cls-61" d="M743.61,467.67a1.19,1.19,0,0,1-1.05-1.15,1.15,1.15,0,0,1,1.39-1.17,1.09,1.09,0,0,1,.8,1.3C744.69,467.34,744.2,467.58,743.61,467.67Z" transform="translate(-15.5 -98.22)"/><path class="cls-87" d="M693.72,350.55c10.53-.84,20.23,7.66,22.64,17.6,1.92,7.93-.16,14.67-5.05,20.93-4,5.14-9.67,7.13-15.63,8.42-3.53.77-7-.49-10.26-1.68-7.37-2.67-12.55-7.73-14.44-15.37-3.29-13.34,3.13-25.09,15.18-29.1C688.66,350.52,691.19,350.72,693.72,350.55Z" transform="translate(-15.5 -98.22)"/><text class="cls-88" transform="translate(707.59 368.99) rotate(5.58)">Unautho<tspan class="cls-89" x="24.43" y="0">r</tspan><tspan x="26.63" y="0">i</tspan><tspan class="cls-90" x="28.19" y="0">z</tspan><tspan x="30.99" y="0">ed</tspan></text><rect class="cls-91" x="0.5" y="323.78" width="41" height="28"/><rect class="cls-91" x="796.5" y="83.78" width="57" height="28"/><rect class="cls-92" x="913.5" y="456.78" width="64" height="28"/><rect class="cls-92" x="1212.5" y="365.78" width="55" height="27"/><path class="cls-93" d="M1192.31,587.77l-76.58,16.81c-5.16,1.12-7.84-2.68-6-8.49l23.18-72.55c1.86-5.82,7.55-11.44,12.72-12.56l76.57-16.81c5.16-1.12,7.84,2.68,6,8.49L1205,575.21C1203.16,581,1197.47,586.65,1192.31,587.77Z" transform="translate(-15.5 -98.22)"/><path class="cls-94" d="M1191.66,468.61l-13.26,2.89,15.23-47.65c.72-2.25-.57-3.68-2.88-3.17l-49.94,10.86a8.24,8.24,0,0,0-5.49,5l-15.23,47.65-13.25,2.88,15.22-47.65c3-9.37,13.26-18.71,22.88-20.8l49.94-10.87c9.62-2.09,15,3.84,12,13.21Z" transform="translate(-15.5 -98.22)"/><path class="cls-95" d="M1207.7,458.07c-4.23-4.65-12-7.48-17.28-6.32L1101.86,471c-2.38.52-3.87,1.75-4.41,3.37h0l-32.71,103.35,113-10.44L1210,465.53a4.7,4.7,0,0,0,.28-.9h0C1210.65,462.73,1209.81,460.39,1207.7,458.07Z" transform="translate(-15.5 -98.22)"/><path class="cls-96" d="M1177.74,567.3,1210,465.53a4.7,4.7,0,0,0,.28-.9h0c.36-1.9-.48-4.24-2.59-6.56a20.9,20.9,0,0,0-7.81-5.17l-37,115.77Z" transform="translate(-15.5 -98.22)"/><path class="cls-94" d="M1173.21,571.09l-88.56,19.27c-5.32,1.16-13.05-1.67-17.28-6.32h0c-4.23-4.65-3.34-9.35,2-10.51l88.57-19.27c5.31-1.16,13,1.67,17.27,6.32h0C1179.41,565.22,1178.53,569.93,1173.21,571.09Z" transform="translate(-15.5 -98.22)"/><path class="cls-16" d="M1154.23,567.69,1143.59,570a4.07,4.07,0,0,1-3.45-1.26h0c-.84-.93-.66-1.87.4-2.1l10.64-2.32a4.08,4.08,0,0,1,3.44,1.26h0C1155.47,566.52,1155.29,567.46,1154.23,567.69Z" transform="translate(-15.5 -98.22)"/><path class="cls-97" d="M568.25,462.74s9.65-1.7,15.77,3.12,7.1,3.26,10.55,6.24-.08,6.51,1.83,8.5,2,5.81-.85,6.8-.92,6.38-7,7.09-3.38,3.66-9.18,4.11-10.61.65-13.67,2-5.83,0-6.7-2.47-3.32.7-4-2.62,1.84-4.63.41-7.32S550.37,466.36,568.25,462.74Z" transform="translate(-15.5 -98.22)"/><path class="cls-98" d="M551.56,655.79a2.6,2.6,0,0,1,.41,2.66v0c-.63,1.76-2.67,3.73-5.05,5.68-.3.26-.57.48-.81.7l-.18.16-.14.13c-2.21,2.1-1.39,2.59-5.37,6.85-4.55,4.86-7.65,4.93-8.53,4.47s.79-3,2.49-5.87l.25-.42c.23-.38.45-.78.68-1.16,2-3.5,1.5-5.15,1.07-10.37-.36-4.25-6.18-23.75-6.18-23.75l8.65-1.49s2.5,15.52,5.35,17.92c1.53,1.29,3.24,1.32,4.71,2.27l.31.2A11.75,11.75,0,0,1,551.56,655.79Z" transform="translate(-15.5 -98.22)"/><path class="cls-97" d="M551.56,655.79a2.6,2.6,0,0,1,.41,2.66v0c-.77,1.76-2.76,3.71-5.06,5.67-.3.25-.56.49-.8.71l-.18.16-.14.13c-2.21,2.1-1.39,2.59-5.37,6.85-4.55,4.86-7.65,4.93-8.53,4.47s.79-3,2.49-5.87a19.1,19.1,0,0,0,8.08-6.11c2.74-3.59,4.58-8.22,6.45-10.89l.31.2A11.75,11.75,0,0,1,551.56,655.79Z" transform="translate(-15.5 -98.22)"/><path class="cls-98" d="M481.91,649.65c-.55,2.78-4.35,2.29-8.59,1.18s-3.24.18-9.28-.57-7.86-3.1-8-4,2.83-1.1,6-1.46l1.22-.15c3.62-.44,6.28-2.85,9.58-4.83,3.13-1.87,7.83-9.54,7.83-9.54L489,631s-4.4,6.86-6.1,9.84c-1,1.75-1,4.08-.85,5.88A11.21,11.21,0,0,1,481.91,649.65Z" transform="translate(-15.5 -98.22)"/><path class="cls-97" d="M473.32,650.83c-4.24-1.12-3.24.18-9.28-.57s-7.86-3.1-8-4,2.83-1.1,6-1.46l0,.06a16.59,16.59,0,0,0,8.64,2.87c4.1.13,8.46-1.06,11.29-1a11.21,11.21,0,0,1-.09,2.95C481.36,652.43,477.56,651.94,473.32,650.83Z" transform="translate(-15.5 -98.22)"/><path class="cls-99" d="M514.06,594.64l7.61,21.79,9.92,28.46a15.83,15.83,0,0,0,5.38-.48,22.82,22.82,0,0,0,5.22-2.6s-2.6-30.49-7.73-48c-1.31-4.5-2.79-8.14-4.44-10.2C522,573.52,514.06,594.64,514.06,594.64Z" transform="translate(-15.5 -98.22)"/><path class="cls-100" d="M522.18,560.18c5.09-1.67,19.56.63,34.08,3.7l3.09-5.21,31.44-2.33s9.84,22.7,4.42,39.27c-1.05,3.22-6.08,3.33-6.08,3.33s-18.42.21-24.49.16c-15.63-.11-33-11.43-35.26-11.92-3.69-.8-5.22,6.89-9,15s-35,35.54-35,35.54-4.77,0-6.74-.77a6.65,6.65,0,0,1-2.88-1.92S510.7,563.94,522.18,560.18Z" transform="translate(-15.5 -98.22)"/><path class="cls-98" d="M569.25,508.18s5.49,2.05,9.22.36C582,507,584.66,501,584.61,501c-1.59-.09-3.32-1.55-4.6-11.06l-.68.25-11.41,4.18s.8,3.81,1.31,7.44C569.66,504.83,569.88,507.75,569.25,508.18Z" transform="translate(-15.5 -98.22)"/><path class="cls-101" d="M567.92,494.35s.49,2.67,1.16,6.49c6.55-1.18,9.3-7,10.25-10.67Z" transform="translate(-15.5 -98.22)"/><path class="cls-98" d="M566.2,498.11s15.58-2.06,14.2-12.15-.3-17.16-10.31-16.27-11.41,5-11.74,8.51S562.11,498.39,566.2,498.11Z" transform="translate(-15.5 -98.22)"/><path class="cls-97" d="M559,472.68s9.91,9,16.68,9.79S585,481,585,481a27.56,27.56,0,0,1-6.34-9.09,4.8,4.8,0,0,0-3.91-3C569.91,468.48,560.73,468.22,559,472.68Z" transform="translate(-15.5 -98.22)"/><path class="cls-97" d="M565.2,471.92s-3.36,3.34-4.43,5.82-1.37,8.15-.58,10.44c0,0-5.12-10.57-2.15-15.66C561.2,467.12,565.2,471.92,565.2,471.92Z" transform="translate(-15.5 -98.22)"/><path class="cls-102" d="M556,532c.25,32.85-.05,26,3.38,29.13.82.76,3.16,1.22,6.23,1.45,9.66.74,26.66-.79,27.32-2.65,2.27-6.42.71-8.43,2.64-18.28.2-1,.45-2.18.74-3.42,1.59-6.76,3.12-9.05-2.31-20-4.92-9.89-10.05-17.93-10.52-17.64-13.22,8-14.23,1.19-14.23,1.19S555.86,516,556,532Z" transform="translate(-15.5 -98.22)"/><path class="cls-100" d="M521.67,616.43l9.92,28.46a15.83,15.83,0,0,0,5.38-.48,22.82,22.82,0,0,0,5.22-2.6s-2.6-30.49-7.73-48Z" transform="translate(-15.5 -98.22)"/><path class="cls-102" d="M569.23,501.79s-13.56,2.29-15.2,8.36L542.8,551.87s6.88,1.34,10.08-2,11.28-30.67,11.28-30.67Z" transform="translate(-15.5 -98.22)"/><path class="cls-103" d="M565.59,562.56c9.66.74,26.66-.79,27.32-2.65,2.27-6.42.71-8.43,2.64-18.28L591,527.92s.67,15.23-3.67,19.21-17.7,7.6-19.82,10.94A12.5,12.5,0,0,0,565.59,562.56Z" transform="translate(-15.5 -98.22)"/><path class="cls-98" d="M576.71,556.24s-9.52-2.28-11.07-1.41-5.32,4-5.8,5.16,3.43-.82,4.7-1.16c.82-.23,3,.57,4,.95,4.49,1.6,7.25.81,7.25.81Z" transform="translate(-15.5 -98.22)"/><path class="cls-102" d="M583.47,500.59s12.8.91,17.19,7.39c6.17,9.11,18.29,47.85,11.16,52.95-8,5.75-36.37,1.26-36.37,1.26s-.91-4.61.42-6.82,22.7-5.66,23.69-6.67-12.18-20.11-12.16-23.19S583.47,500.59,583.47,500.59Z" transform="translate(-15.5 -98.22)"/><path class="cls-98" d="M565.16,557.59a18.93,18.93,0,0,1-2.67,3,1.93,1.93,0,0,1-1.08.23l1.36-2.52Z" transform="translate(-15.5 -98.22)"/><path class="cls-98" d="M565.64,554.83l-5.83,2.89a1,1,0,0,0,1,.4,13.37,13.37,0,0,0,2.53-.71Z" transform="translate(-15.5 -98.22)"/><polygon class="cls-97" points="548.23 466.69 502.28 466.36 488.7 430.43 534.58 430.77 548.23 466.69"/><polygon class="cls-97" points="501.75 464.96 562.43 465.4 562.42 466.8 502.28 466.36 501.75 464.96"/><path class="cls-104" d="M529.5,546.75a1.65,1.65,0,0,1,1.58-2.27,3.17,3.17,0,0,1,2.8,2.3,1.65,1.65,0,0,1-1.58,2.27A3.17,3.17,0,0,1,529.5,546.75Z" transform="translate(-15.5 -98.22)"/><path class="cls-98" d="M789.64,474.67s-1-2.27-1.66-3.34-3.45-4.23-3.93-3.51-2.37,5.51-1.36,6.85-.07,3.68,5,5.1Z" transform="translate(-15.5 -98.22)"/><path class="cls-103" d="M845.47,460.34s-25.72,21.47-35.75,19.48a199.35,199.35,0,0,1-19.87-5.68l-2.41,6.15s10.79,14.64,22,14.74a64.11,64.11,0,0,0,30.59-7.62Z" transform="translate(-15.5 -98.22)"/><path class="cls-105" d="M890.57,686.76s-.75,12-3.08,12.22c-.31,0-11.82,0-11.82,0L861,698.91s.1-3.53,4.39-4.28,11.48-3.77,14.09-9.44C882.19,679.22,890.57,686.76,890.57,686.76Z" transform="translate(-15.5 -98.22)"/><path class="cls-106" d="M891.41,687.6a30.64,30.64,0,0,1-7.95,1.49A29.13,29.13,0,0,1,876,688s-.84-8.13-5.47-26c-2.43-9.39-5.89-21.46-10.82-36.46-13.62-41.46-17.77-65.72-18.14-68l0-.18,0,0,41.89-18.4s-5.18,57.14,1.43,79.08a91,91,0,0,1,2.4,10.5C891.51,652.33,891.41,687.6,891.41,687.6Z" transform="translate(-15.5 -98.22)"/><path class="cls-107" d="M870.57,662c-2.43-9.39-5.89-21.46-10.82-36.46-13.62-41.46-17.77-65.72-18.14-68a1.27,1.27,0,0,1,0-.2l41.89-18.4s-5.18,57.14,1.43,79.08C885.87,621.06,870.57,662,870.57,662Z" transform="translate(-15.5 -98.22)"/><path class="cls-105" d="M857.85,686.76s-.75,12-3.08,12.22c-.31,0-11.82,0-11.82,0l-14.68-.09s.09-3.53,4.39-4.28,11.48-3.77,14.08-9.44C849.47,679.22,857.85,686.76,857.85,686.76Z" transform="translate(-15.5 -98.22)"/><path class="cls-106" d="M834.1,540.27A595.42,595.42,0,0,0,840,622.76c6.41,45.46,4.24,64.76,4.24,64.76a43.07,43.07,0,0,0,6.17,1.57,28,28,0,0,0,9.17-1.06s9.17-45.48,6.54-68.23,12.56-78.09,12.56-78.09Z" transform="translate(-15.5 -98.22)"/><path class="cls-98" d="M863.8,453.62,855.62,459l-7.44-2.1c-1.36-1.95-1.73-5.69-1.75-8.93a54.37,54.37,0,0,1,.3-5.95l11-4.87,4.12-1.81c0,.06-.32,3.38-.37,3.86A28.14,28.14,0,0,0,863.8,453.62Z" transform="translate(-15.5 -98.22)"/><path class="cls-102" d="M833.91,550.56c10.18,9.83,48.7,8.18,51.07-2.65s-2.59-92.16-20-97.27c-3.61-1.06-22.9,5.17-22.9,5.17a121.79,121.79,0,0,0-5,18c-.39,2-1.51,22.74-2.35,42.19-.39,9.09-.73,17.9-.9,24.34C833.7,546.38,833.69,550.35,833.91,550.56Z" transform="translate(-15.5 -98.22)"/><path class="cls-108" d="M860.69,439.33c-2.24,3.79-10.09,7.1-14.26,8.62a54.37,54.37,0,0,1,.3-5.95l11-4.87C860.2,437.1,861.68,437.64,860.69,439.33Z" transform="translate(-15.5 -98.22)"/><path class="cls-98" d="M842.57,441.33s17.77,5.54,21-5.58,7.79-17.9-3.42-21.91-14.68-.42-16.68,3S838,439.6,842.57,441.33Z" transform="translate(-15.5 -98.22)"/><path class="cls-109" d="M844.22,415.8s1.14,12.94,3.81,12.38,5.63-1.77,5.23,2.14,2.61,10.59,6.47,10.57c8.27,0,17.27-21.28,15-25.3C868.19,404,834.77,401.62,844.22,415.8Z" transform="translate(-15.5 -98.22)"/><path class="cls-103" d="M846.84,450.92c.23-.1,13.23-5.93,14.75-5.43s3.42,5.15,3.42,5.15l-22.9,5.17S843.91,452.15,846.84,450.92Z" transform="translate(-15.5 -98.22)"/><path class="cls-110" d="M765.88,513.91l72.89,68.63c1.43,1.34,3.24,1.77,4,1l2.46-2.61c.77-.82.24-2.6-1.19-3.94l-72.89-68.63c-1.43-1.35-3.23-1.77-4-.95L764.69,510C763.92,510.79,764.46,512.56,765.88,513.91Z" transform="translate(-15.5 -98.22)"/><path class="cls-111" d="M806.79,552.42l32,30.12c1.43,1.34,3.24,1.77,4,1l2.46-2.61c.77-.82.24-2.6-1.19-3.94l-32-30.12Z" transform="translate(-15.5 -98.22)"/><path class="cls-110" d="M769.59,432.18a57.12,57.12,0,0,0-80.75-2.46l-.9.86a57.14,57.14,0,1,0,81.65,1.6ZM764,509.65a52.62,52.62,0,1,1,2.27-74.38A52.56,52.56,0,0,1,764,509.65Z" transform="translate(-15.5 -98.22)"/><g class="cls-112"><path class="cls-113" d="M689.66,507.38A52.62,52.62,0,1,0,691.93,433,52.41,52.41,0,0,0,689.66,507.38Z" transform="translate(-15.5 -98.22)"/></g><path class="cls-103" d="M833.85,540.34c40.17-28.62,36.83-66.81,36.83-66.81C856,481.81,841.43,500.12,834.75,516,834.36,525.09,834,533.9,833.85,540.34Z" transform="translate(-15.5 -98.22)"/><path class="cls-98" d="M794.21,527.31a10.92,10.92,0,0,1-5.13-3.17s-1.2.08.2,2.66c.12.22.38.77.58,1.16a.25.25,0,0,1-.21.36c-1.64.13-3.28-.52-6.43.14-.43.09-.56,1.13-.54,1.57a4,4,0,0,0,.84,2.74c.51.67,1.93,1.39,5.08,2.66,1.2.48,4.63.12,7.85-1l2.57-1.19-.79-4.77-.65.13C796.55,528.83,795.28,527.57,794.21,527.31Z" transform="translate(-15.5 -98.22)"/><path class="cls-102" d="M858.21,455.81s36.09,6.87-10.61,59.13c-7.47,8.36-47.83,19.24-47.83,19.24s-4.09-3.48-2-6.3c0,0,27.79-20.18,33.9-23.38,2.75-1.45,10.67-32.21,15.16-39.62A20.2,20.2,0,0,1,858.21,455.81Z" transform="translate(-15.5 -98.22)"/><path class="cls-98" d="M788.66,475.31a18.45,18.45,0,0,1-1.41-3.45,19.08,19.08,0,0,0-2.33-5.27c-.25-.25-1,.07-1.15,1.12a6.05,6.05,0,0,0,.58,2.28c.65,1.62.54,3.81.76,4.54C785.67,476.35,788.66,475.31,788.66,475.31Z" transform="translate(-15.5 -98.22)"/></svg>